<?xml version="1.0" encoding="UTF-8"?>
<svg id="a" xmlns="http://www.w3.org/2000/svg"
     viewBox="-15 -35 1080 370">
    <defs>
        <style>
          .aj {
            fill: url(#v);
          }

          .aj, .ak, .al, .am, .an, .ao, .ap, .aq, .ar, .as, .at, .au, .av, .aw, .ax, .ay, .az, .ba, .bb, .bc, .bd, .be, .bf, .bg, .bh, .bi, .bj, .bk, .bl, .bm, .bn, .bo, .bp, .bq {
            stroke-width: 0px;
          }

          .ak {
            fill: url(#w);
          }

          .al {
            fill: url(#c);
          }

          .am {
            fill: url(#s);
          }

          .an {
            fill: url(#ag);
          }

          .ao {
            fill: url(#y);
          }

          .ap {
            fill: url(#ad);
          }

          .aq {
            fill: url(#e);
          }

          .ar {
            fill: url(#g);
          }

          .as {
            fill: url(#i);
          }

          .at {
            fill: url(#ah);
          }

          .au {
            fill: url(#l);
          }

          .av {
            fill: url(#b);
          }

          .aw {
            fill: url(#q);
          }

          .ax {
            fill: url(#t);
          }

          .ay {
            fill: url(#u);
          }

          .az {
            fill: url(#n);
          }

          .ba {
            fill: url(#z);
          }

          .bb {
            fill: url(#h);
          }

          .bc {
            fill: url(#j);
          }

          .bd {
            fill: url(#d);
          }

          .be {
            fill: url(#af);
          }

          .bf {
            fill: url(#f);
          }

          .bg {
            fill: url(#m);
          }

          .bh {
            fill: url(#ab);
          }

          .bi {
            fill: url(#ai);
          }

          .bj {
            fill: url(#r);
          }

          .bk {
            fill: url(#ae);
          }

          .bl {
            fill: url(#aa);
          }

          .bm {
            fill: url(#k);
          }

          .bn {
            fill: url(#p);
          }

          .bo {
            fill: url(#ac);
          }

          .bp {
            fill: url(#x);
          }

          .bq {
            fill: url(#o);
          }</style>
        <linearGradient id="b" x1="-1.14" y1="15.05" x2="983.28" y2="435.34" gradientUnits="userSpaceOnUse">
            <stop offset="0" stop-color="#fdb115" />
            <stop offset=".12" stop-color="#fdb215" />
            <stop offset=".16" stop-color="#fdb916" />
            <stop offset=".17" stop-color="#febd17" />
            <stop offset=".3" stop-color="#ff834f" />
            <stop offset=".32" stop-color="#fe8151" />
            <stop offset=".34" stop-color="#fd7d59" />
            <stop offset=".35" stop-color="#fb7568" />
            <stop offset=".36" stop-color="#f76a7c" />
            <stop offset=".37" stop-color="#f66488" />
            <stop offset=".4" stop-color="#f46489" />
            <stop offset=".42" stop-color="#ee6590" />
            <stop offset=".43" stop-color="#e4679d" />
            <stop offset=".43" stop-color="#d66aae" />
            <stop offset=".43" stop-color="#d56bb0" />
            <stop offset=".43" stop-color="#d16db1" />
            <stop offset=".44" stop-color="#b183bd" />
            <stop offset=".45" stop-color="#9795c6" />
            <stop offset=".46" stop-color="#81a4cf" />
            <stop offset=".47" stop-color="#70afd5" />
            <stop offset=".48" stop-color="#64b8d9" />
            <stop offset=".5" stop-color="#5dbcdc" />
            <stop offset=".54" stop-color="#5cbedd" />
            <stop offset=".56" stop-color="#5cbadb" />
            <stop offset=".58" stop-color="#5eaed8" />
            <stop offset=".59" stop-color="#619ad2" />
            <stop offset=".6" stop-color="#6587cc" />
            <stop offset=".62" stop-color="#7a78c5" />
            <stop offset=".64" stop-color="#9069bf" />
            <stop offset=".67" stop-color="#a15eba" />
            <stop offset=".7" stop-color="#ad56b6" />
            <stop offset=".74" stop-color="#b452b4" />
            <stop offset=".86" stop-color="#b651b4" />
            <stop offset="1" stop-color="#c43aa8" />
        </linearGradient>
        <radialGradient id="c" cx="513.44" cy="310.89" fx="400.42" fy="310.89" r="165.25" gradientTransform="translate(3.54 772.62) rotate(-83.88) scale(1 1.47)" gradientUnits="userSpaceOnUse">
            <stop offset=".3" stop-color="#b064ff" />
            <stop offset=".35" stop-color="rgba(174,101,254,.98)" stop-opacity=".98" />
            <stop offset=".4" stop-color="rgba(170,106,252,.93)" stop-opacity=".93" />
            <stop offset=".45" stop-color="rgba(162,114,249,.84)" stop-opacity=".84" />
            <stop offset=".5" stop-color="rgba(152,125,245,.72)" stop-opacity=".72" />
            <stop offset=".55" stop-color="rgba(139,139,240,.56)" stop-opacity=".56" />
            <stop offset=".61" stop-color="rgba(123,156,233,.37)" stop-opacity=".37" />
            <stop offset=".66" stop-color="rgba(104,176,226,.15)" stop-opacity=".15" />
            <stop offset=".7" stop-color="#5cbedd" stop-opacity="0" />
        </radialGradient>
        <radialGradient id="d" cx="24.88" cy="98.94" fx="-169.57" fy="43.65" r="202.15" gradientTransform="translate(91.86 -11.15) rotate(42.45) scale(1 1.28)" gradientUnits="userSpaceOnUse">
            <stop offset=".22" stop-color="#74c651" />
            <stop offset=".46" stop-color="rgba(117,197,80,.99)" stop-opacity=".99" />
            <stop offset=".54" stop-color="rgba(122,197,78,.96)" stop-opacity=".96" />
            <stop offset=".6" stop-color="rgba(130,197,74,.9)" stop-opacity=".9" />
            <stop offset=".65" stop-color="rgba(142,196,70,.81)" stop-opacity=".81" />
            <stop offset=".7" stop-color="rgba(157,195,63,.7)" stop-opacity=".7" />
            <stop offset=".73" stop-color="rgba(176,194,55,.56)" stop-opacity=".56" />
            <stop offset=".77" stop-color="rgba(198,192,46,.4)" stop-opacity=".4" />
            <stop offset=".8" stop-color="rgba(224,190,35,.22)" stop-opacity=".22" />
            <stop offset=".82" stop-color="rgba(252,189,23,0)" stop-opacity="0" />
            <stop offset=".83" stop-color="#febd17" stop-opacity="0" />
        </radialGradient>
        <linearGradient id="e" x1="186.72" y1="-104.73" x2="801" y2="509.55" gradientUnits="userSpaceOnUse">
            <stop offset="0" stop-color="#a36b15" />
            <stop offset=".08" stop-color="#a46b15" />
            <stop offset=".12" stop-color="#ab6b18" />
            <stop offset=".14" stop-color="#b76b1d" />
            <stop offset=".16" stop-color="#c86c23" />
            <stop offset=".17" stop-color="#de6c2c" />
            <stop offset=".17" stop-color="#e36d2e" />
            <stop offset=".3" stop-color="#e7432b" />
            <stop offset=".32" stop-color="#e4422b" />
            <stop offset=".34" stop-color="#dc422d" />
            <stop offset=".35" stop-color="#cd4131" />
            <stop offset=".36" stop-color="#b94037" />
            <stop offset=".37" stop-color="#ac403b" />
            <stop offset=".4" stop-color="#ac413c" />
            <stop offset=".42" stop-color="#ae4841" />
            <stop offset=".43" stop-color="#b25549" />
            <stop offset=".43" stop-color="#b86554" />
            <stop offset=".44" stop-color="#aa6464" />
            <stop offset=".45" stop-color="#98637a" />
            <stop offset=".45" stop-color="#8a638b" />
            <stop offset=".46" stop-color="#816397" />
            <stop offset=".48" stop-color="#7b639e" />
            <stop offset=".52" stop-color="#7a63a0" />
            <stop offset=".53" stop-color="#76639f" />
            <stop offset=".55" stop-color="#6a649e" />
            <stop offset=".56" stop-color="#56679d" />
            <stop offset=".57" stop-color="#3b6a9a" />
            <stop offset=".58" stop-color="#316c9a" />
            <stop offset=".58" stop-color="#3e6698" />
            <stop offset=".6" stop-color="#585c94" />
            <stop offset=".63" stop-color="#6e5391" />
            <stop offset=".65" stop-color="#7f4d8f" />
            <stop offset=".69" stop-color="#8b488e" />
            <stop offset=".73" stop-color="#92458d" />
            <stop offset=".86" stop-color="#94458d" />
            <stop offset="1" stop-color="#ae1881" />
        </linearGradient>
        <linearGradient id="f" x1="934.12" y1="287.41" x2="1010.65" y2="170.11" gradientUnits="userSpaceOnUse">
            <stop offset="0" stop-color="#e082dc" />
            <stop offset=".63" stop-color="#df83db" />
            <stop offset=".86" stop-color="#de8adb" />
            <stop offset="1" stop-color="#dc94db" />
        </linearGradient>
        <linearGradient id="g" x1="991.74" y1="224.95" x2="950.24" y2="299.62" gradientUnits="userSpaceOnUse">
            <stop offset="0" stop-color="#dc91d3" />
            <stop offset=".37" stop-color="#dd92d4" />
            <stop offset=".51" stop-color="#e198db" />
            <stop offset=".61" stop-color="#e8a3e7" />
            <stop offset=".61" stop-color="#eaa5e9" />
            <stop offset=".7" stop-color="#e79ce5" />
            <stop offset=".72" stop-color="#e79ae5" />
            <stop offset=".76" stop-color="#df8cda" />
            <stop offset=".84" stop-color="#d479cc" />
            <stop offset=".92" stop-color="#ce6dc3" />
            <stop offset="1" stop-color="#cc6ac1" />
        </linearGradient>
        <linearGradient id="h" x1="864.14" y1="269.05" x2="915.72" y2="162.05" gradientUnits="userSpaceOnUse">
            <stop offset="0" stop-color="#eca0f6" />
            <stop offset=".8" stop-color="#ec9df6" />
            <stop offset="1" stop-color="#ed9bf6" />
        </linearGradient>
        <linearGradient id="i" x1="857.61" y1="153.47" x2="821.9" y2="217.16" gradientUnits="userSpaceOnUse">
            <stop offset="0" stop-color="#edb1f6" />
            <stop offset=".17" stop-color="#ecaef3" />
            <stop offset=".27" stop-color="#eba7eb" />
            <stop offset=".31" stop-color="#eaa2e5" />
            <stop offset=".82" stop-color="#eaa2e5" />
            <stop offset="1" stop-color="#ecb1f6" />
        </linearGradient>
        <linearGradient id="j" x1="815.55" y1="222.84" x2="794.28" y2="278.15" gradientUnits="userSpaceOnUse">
            <stop offset="0" stop-color="#ecaaee" />
            <stop offset=".07" stop-color="#e9a4ec" />
            <stop offset=".68" stop-color="#d780de" />
            <stop offset="1" stop-color="#d172d9" />
        </linearGradient>
        <linearGradient id="k" x1="863.97" y1="272.39" x2="871.77" y2="288.46" gradientUnits="userSpaceOnUse">
            <stop offset="0" stop-color="#ebaed5" />
            <stop offset=".22" stop-color="#e49fd0" />
            <stop offset=".72" stop-color="#d681c6" />
            <stop offset="1" stop-color="#d177c3" />
        </linearGradient>
        <linearGradient id="l" x1="773.5" y1="168.67" x2="736.25" y2="251.43" gradientUnits="userSpaceOnUse">
            <stop offset="0" stop-color="#edb1f6" />
            <stop offset=".01" stop-color="#e7a1ef" />
            <stop offset=".05" stop-color="#dc81e0" />
            <stop offset=".08" stop-color="#d56ed8" />
            <stop offset=".1" stop-color="#d367d5" />
            <stop offset=".1" stop-color="#d46bd6" />
            <stop offset=".13" stop-color="#dd88e1" />
            <stop offset=".15" stop-color="#e49de9" />
            <stop offset=".17" stop-color="#e8a9ee" />
            <stop offset=".19" stop-color="#eaaef0" />
            <stop offset=".47" stop-color="#c748d2" />
            <stop offset=".64" stop-color="#e283df" />
            <stop offset="1" stop-color="#da99ce" />
        </linearGradient>
        <linearGradient id="m" x1="672.51" y1="259.63" x2="774.86" y2="159.33" gradientUnits="userSpaceOnUse">
            <stop offset="0" stop-color="#c5a1ff" />
            <stop offset=".3" stop-color="#d6a7fb" />
            <stop offset=".7" stop-color="#e7aef7" />
            <stop offset="1" stop-color="#edb1f6" />
        </linearGradient>
        <linearGradient id="n" x1="690.59" y1="245.14" x2="704.4" y2="272.19" gradientUnits="userSpaceOnUse">
            <stop offset="0" stop-color="#dca2cc" />
            <stop offset=".28" stop-color="#d890d0" />
            <stop offset=".82" stop-color="#cd64dc" />
            <stop offset="1" stop-color="#ca55e1" />
        </linearGradient>
        <linearGradient id="o" x1="492.41" y1="261.47" x2="615.3" y2="117.25" gradientUnits="userSpaceOnUse">
            <stop offset="0" stop-color="#acd1eb" />
            <stop offset="1" stop-color="#b9ffff" />
        </linearGradient>
        <linearGradient id="p" x1="595.86" y1="162.96" x2="582.96" y2="190.22" gradientUnits="userSpaceOnUse">
            <stop offset="0" stop-color="#b7f7fb" />
            <stop offset="1" stop-color="#add3ec" />
        </linearGradient>
        <linearGradient id="q" x1="515.3" y1="234.52" x2="533.86" y2="267.58" gradientUnits="userSpaceOnUse">
            <stop offset="0" stop-color="#a0cce7" />
            <stop offset="1" stop-color="#aaa7f0" />
        </linearGradient>
        <linearGradient id="r" x1="551.11" y1="231.74" x2="694.4" y2="162.1" gradientUnits="userSpaceOnUse">
            <stop offset="0" stop-color="#add4ec" />
            <stop offset="1" stop-color="#d4c6fb" />
        </linearGradient>
        <linearGradient id="s" x1="709.39" y1="85.69" x2="692.95" y2="129.41" gradientUnits="userSpaceOnUse">
            <stop offset="0" stop-color="#c2e3fb" />
            <stop offset=".25" stop-color="#c1dafb" />
            <stop offset=".65" stop-color="#c0c3fd" />
            <stop offset="1" stop-color="#c0aaff" />
        </linearGradient>
        <linearGradient id="t" x1="621.26" y1="245.02" x2="629.57" y2="268.95" gradientUnits="userSpaceOnUse">
            <stop offset="0" stop-color="#ad9ddf" />
            <stop offset=".96" stop-color="#8e9fd7" />
            <stop offset="1" stop-color="#8da0d7" />
        </linearGradient>
        <linearGradient id="u" x1="524.38" y1="81.21" x2="497.83" y2="124.46" gradientUnits="userSpaceOnUse">
            <stop offset="0" stop-color="#b9ffff" />
            <stop offset=".2" stop-color="#b5fdfe" />
            <stop offset=".38" stop-color="#aaf9fb" />
            <stop offset=".55" stop-color="#98f2f7" />
            <stop offset=".71" stop-color="#7fe8f1" />
            <stop offset=".87" stop-color="#5edce9" />
            <stop offset="1" stop-color="#3dcfe1" />
        </linearGradient>
        <linearGradient id="v" x1="436.88" y1="241.82" x2="450.83" y2="267.04" gradientUnits="userSpaceOnUse">
            <stop offset="0" stop-color="#82d0ec" />
            <stop offset=".25" stop-color="#8ecaec" />
            <stop offset=".69" stop-color="#afbaef" />
            <stop offset="1" stop-color="#c9aef1" />
        </linearGradient>
        <linearGradient id="w" x1="496.62" y1="129.62" x2="416.48" y2="240.57" gradientUnits="userSpaceOnUse">
            <stop offset="0" stop-color="#b9ffff" />
            <stop offset=".3" stop-color="#bafcfd" />
            <stop offset=".51" stop-color="#c1f2f7" />
            <stop offset=".71" stop-color="#cce2ed" />
            <stop offset=".88" stop-color="#dbcce0" />
            <stop offset="1" stop-color="#e8b9d5" />
        </linearGradient>
        <linearGradient id="x" x1="363.39" y1="229.99" x2="386.08" y2="272.66" gradientUnits="userSpaceOnUse">
            <stop offset="0" stop-color="#ffaba0" />
            <stop offset=".24" stop-color="#fda1b2" />
            <stop offset=".73" stop-color="#f88ae2" />
            <stop offset="1" stop-color="#f67cff" />
        </linearGradient>
        <linearGradient id="y" x1="494.84" y1="26.35" x2="438.13" y2="129.68" gradientUnits="userSpaceOnUse">
            <stop offset="0" stop-color="#ff9bcd" />
            <stop offset="1" stop-color="#ffadc5" />
        </linearGradient>
        <linearGradient id="z" x1="493.57" y1="-5.95" x2="319.84" y2="249.71" gradientUnits="userSpaceOnUse">
            <stop offset="0" stop-color="#ffdfd6" />
            <stop offset=".31" stop-color="#fdcfc8" />
            <stop offset="1" stop-color="#faafac" />
        </linearGradient>
        <linearGradient id="aa" x1="296.23" y1="243.78" x2="297.39" y2="281.66" gradientUnits="userSpaceOnUse">
            <stop offset="0" stop-color="#fdb115" />
            <stop offset=".1" stop-color="#fdb528" />
            <stop offset=".4" stop-color="#fdc25f" />
            <stop offset=".67" stop-color="#fdcc88" />
            <stop offset=".87" stop-color="#fdd1a0" />
            <stop offset="1" stop-color="#fed4aa" />
        </linearGradient>
        <linearGradient id="ab" x1="239.79" y1="204.99" x2="383.34" y2="66.16" gradientUnits="userSpaceOnUse">
            <stop offset="0" stop-color="#ffcf8f" />
            <stop offset=".92" stop-color="#ffe8cf" />
            <stop offset="1" stop-color="#ffebd5" />
        </linearGradient>
        <linearGradient id="ac" x1="230.64" y1="178.07" x2="230.33" y2="213.06" gradientUnits="userSpaceOnUse">
            <stop offset="0" stop-color="#fdb115" />
            <stop offset=".33" stop-color="#fdc354" />
            <stop offset=".64" stop-color="#fed48a" />
            <stop offset=".87" stop-color="#fedeab" />
            <stop offset="1" stop-color="#ffe2b8" />
        </linearGradient>
        <linearGradient id="ad" x1="161.5" y1="273.88" x2="273.38" y2="131.57" gradientUnits="userSpaceOnUse">
            <stop offset="0" stop-color="#ffbb48" />
            <stop offset=".29" stop-color="#ffc965" />
            <stop offset="1" stop-color="#ffeca9" />
        </linearGradient>
        <linearGradient id="ae" x1="340.75" y1="141.84" x2="410.81" y2="28.93" gradientUnits="userSpaceOnUse">
            <stop offset="0" stop-color="#ffcb97" />
            <stop offset=".46" stop-color="#ffcaa1" />
            <stop offset="1" stop-color="#ffcaa8" />
        </linearGradient>
        <linearGradient id="af" x1="160.5" y1="16.14" x2="66.67" y2="269.51" gradientUnits="userSpaceOnUse">
            <stop offset="0" stop-color="#fdeca9" />
            <stop offset="1" stop-color="#ffeaaf" />
        </linearGradient>
        <linearGradient id="ag" x1="86.81" y1="88.69" x2="119.68" y2="102.73" gradientUnits="userSpaceOnUse">
            <stop offset="0" stop-color="#beff7d" />
            <stop offset=".48" stop-color="#bcfd7b" />
            <stop offset=".67" stop-color="#b5f676" />
            <stop offset=".79" stop-color="#a9eb6d" />
            <stop offset=".9" stop-color="#98dc60" />
            <stop offset=".99" stop-color="#82c84f" />
            <stop offset="1" stop-color="#7fc54d" />
        </linearGradient>
        <linearGradient id="ah" x1="6.97" y1="236.15" x2="50.66" y2="295.56" gradientUnits="userSpaceOnUse">
            <stop offset="0" stop-color="#fff299" />
            <stop offset="1" stop-color="#ffd67c" />
        </linearGradient>
        <linearGradient id="ai" x1="58.82" y1="89.74" x2="190.13" y2="-5.29" gradientUnits="userSpaceOnUse">
            <stop offset="0" stop-color="#b5ff79" />
            <stop offset=".35" stop-color="#cbf78f" />
            <stop offset="1" stop-color="#fee5c3" />
        </linearGradient>
    </defs>
    <path class="av"
          d="M205.48,17.81c-24.65,68.2-31.53,140.66-48.72,210.37-.01.06-.02.12-.03.17-10.21,66.91-119.65,128.79-156.01,55.58-.04-.08-.07-.17-.11-.25-8.76-22.79-8.01-43.18,12.48-62.27,4.99-4.64,11.04-7.17,18.07-6.52,9.2.9,3.25,9.28.81,13.86-.02.04-.03.07-.05.11-4.83,11.76-1.8,22.51,4.38,32.31.07.09.13.18.2.27,12.84,15.66,40.69,12.27,54.79-.8,19.51-17.01,24.67-42.88,30.85-66.25,5.51-24.18,28.1-137.43,39.25-158.15,1.61-3.21,3.85-6.43,6.32-9.59,5.98-7.65-1.58-17.84-11.49-15.38-.07.02-.13.03-.2.05-21.28,5.6-41.01,14.11-55.59,30.65-13.65,16.05-22.63,46.03,3.6,54.19,8.41,2.61,16.37,5.96,12.3,15.89-5.04,14.35-18.84,21.84-34.26,17.89-27.78-7.36-39.23-22.58-40.8-47.97C39.06,23.42,113.55-18.38,172.46-17.57c15.81-.06,31.83.95,47.44-3.94,10.56-3.28,12.2,6.49,8.34,13.33-.02.04-.04.08-.06.12-.68,1.81-3.2,3.38-5.46,4.56-.05.02-.1.05-.14.07-9.66,4.26-13.87,12.36-17.1,21.24ZM497.08,92.65c-9.68,8.05-8.68,30.83,7.79,33.86,14.51,3.23,32.37-10.78,32.03-25.18-.26-10.2-4.92-15.73-13.02-17.14-9.75-1.71-20.14,1.23-26.8,8.46ZM1021.91,220.97s0,.08,0,.12c2.91,29.77,8.36,64.32-25.04,79.33-20.49,10.43-48.81,4.98-60.19-15.71-2.2-4.51,4.2-12.26,7.43-15.78,3.14-3.67,8.36-4.23,10.3-.62,2.61,4.84,5.05,9.94,9.51,11.37,8.44,2.69,18.33-1.93,24.08-16.62,4.38-11.21,4.23-21.4.94-33.45t0,0c-.96-4.37-4.18-6.03-6.82-2.76-27.46,25.48-52.71,63.31-93.82,63.3-20.04.37-19-3.87-26.78-17.99-.58-1.06-1.92-1.49-3.02-.97-6.65,3.17-12.81,6.35-18.91,9.06-22.89,11.05-63.09-3.27-47.25-33.12,4.6-9.5,8.26-16.34,13.46-25.5-5.72,1.99-10.19.39-15.84.26-13.3,29.93-39.7,54.04-70.79,52.17-17.42-1.05-29.41-12.38-32.33-29.41-18.35,19.94-62.23,39.68-70.35.95-33.26,23.99-88.51,34.22-107.52-8.44-17.2,23.16-64.62,48.94-73.61,5.82-8.47,9.75-16.09,19.66-28.04,25.2-.11.04-.22.09-.33.13-24.35,7.97-42.4-11.95-42.96-35.1-10.99,14.97-21.1,30.96-37.41,39.62-.12.05-.23.1-.35.15-22.87,8.22-41.58-9.42-43.54-31.62,0,0,0,0,0,0-40.97,66.26-135.36,58.26-111.34-31.14,12.8-43.37,44.14-68.54,70.25-70.74,19.03-1.51,31.01,7.85,32.85,25.47,3.03,34.22-32.42,58.23-65.7,61.6-.72.64-1.22,1.08-1.94,1.72-1.95,10.23-2.66,19.62,2.08,23.56,8.73,8.33,31.54,3.57,37.24,1.03,11.45-4.05,29.72-24.59,35.44-33.71.66-1.52,1.31-3.01,1.97-4.53.51-1.86,1.03-3.71,1.54-5.57,0,0,0,0,0,.01,13.04-51.84,27.52-106.67,50.01-153.5,15.35-31.34,34.17-46.26,61.46-42.83.09.01.17.03.26.04,18.52,3.41,26.58,18.24,20.75,37.41-12,34.02-30.38,54.08-53.61,84.46-7.09,8.75-17.65,25.23-28.09,37.01-2.54,2.86-4.31,6.26-5.29,9.9-3.28,12.22-7.14,24.84-10.05,36.85-3.42,14.25,15.56,22.74,24.37,10.91,7.57-10.16,15.15-21.23,21.21-29.65,2.3-3.2,4.04-6.74,5.13-10.49,13.7-47.03,28.2-96.06,49.85-138,16.11-30.96,35.28-45.42,62.48-41.33.08.02.17.03.26.05,18.44,3.85,26.13,18.88,19.84,37.9-14.72,39.4-54.52,83.35-86.24,116.3-.22.23-.37.5-.45.8-4.57,17.31-11.64,36.8-15.91,54.59-3.02,12.66,13.65,20.47,21.91,10.3,9.4-11.57,19.18-25.27,26.37-34.91,1.24-2.1,2.46-4.16,3.7-6.26,6.45-14.15,13.14-28.34,19.81-42.61,3.05-6.94,8.1-8.58,15.94-9.47,7.08-.82,25.47-3.33,21.13,9.48,0,0,0,.01,0,.02-2.24,4.99-32.76,69.46-35.43,76.44,0,0,0,.01-.01.02-2.1,4.22-5.99,9.68-1.65,13.82,5.57,4.72,10.39-.73,14.66-3.17,5.13-3.02,9.37-6.91,13.61-10.79.07-.07.13-.14.2-.21,3.15-3.71,5.57-10.11,6.5-12.94,0-.03.01-.05.02-.08,6.73-32.45,29.86-53.85,52.38-64.08,42.98-19.62,84.81-3.24,57.34,38.98-10.09,17.73-43.04,14.34-35.08-2.34,2.23-4.41,5.08-8.5,7.34-12.9.04-.1.09-.21.13-.31,1.28-3.53,1.61-7.35-2.67-9.51-3.71-2.17-8.13-1.06-15.1,4.83-18.25,16.62-45.81,68.78-2.7,75.27,18.3,2.37,36.12-3.49,48.76-15.12,1.89-1.74,3.94-5.27,4.87-7.22,11.17-22.77,23.49-45.45,35.74-68.37,3.42-6.77,8.6-7.63,16.43-8.6,19.53-2.4,29.65-1.93,15.44,20.18-.02.04-.06.1-.08.14-11.63,21.53-23.05,43.11-34.28,64.75-2.32,4.11-6.51,9.35-2.4,13.71,5.31,5.02,10.41-.17,14.81-2.37,5.3-2.75,9.76-6.42,14.22-10.08.05-.04.1-.09.15-.13,6.16-5.81,9.33-18.99,13.96-26.77.03-.06.06-.12.09-.18,21.28-54.76,117.76-64.56,97.61,9.12,4.83,1.48,10.41,1.62,16.67.07,1.54-.38,2.84-1.39,3.61-2.74,7.37-12.93,16.29-24.78,24.62-37.3,3.74-6.28,9.09-9.39,16.96-8.92,5.64.55,11.11-.4,16.72.48,9.06,1.24,11.14,5.39,6.23,13.02-16.37,24.16-32.79,48.02-46,73.81-3.05,6.34-.87,9.25,6.55,8.76,10.22-.83,18.64-5.09,23.88-13.91,8.59-15.96,32.02-51.49,42.57-67.22,7.92-12.07,23.91-8.75,36.5-7.16.09.02.18.03.27.05,10.77,2.84,2.3,13.78-1.53,19.1-.02.03-.03.05-.05.07-4.7,7.58-40.16,60.36-42.61,67.11-6.66,17.48,25.9,9.03,32.13,2.1.06-.06.12-.11.19-.17,17.88-13.19,53.7-62.16,71.96-75.12,9.52-7.6,41.73-6.96,49.94,2.07,5.54,8.43-32.65,10.69-31.5,38.76ZM488.64,38.44c1.53-5.79.23-14.58-5.59-15.02-.08,0-.17,0-.25,0-3.28.13-11.63,4.44-28.94,41.71-9.33,20.26-18.36,44.39-25.08,63.77,22.43-28.02,49.68-55.25,59.85-90.45ZM386,77.31c6.59-10.61,13.89-22.99,16.32-36.1,1.39-5.82-.12-14.58-5.95-14.88-.08,0-.17,0-.25,0-3.28.21-11.51,4.72-27.92,42.4-8.9,20.47-25.67,62.46-31.77,82.01,14.15-17.84,37.26-53.78,49.56-73.43ZM212.2,207.23c20.23-4.9,38.52-27.98,30.86-42.6-.31-.31-.6-.6-.91-.9-10.5-5.24-23.6,13.45-32.53,40.68-.03.09-.05.18-.08.27,0,0,0,0,0,0-.38,1.55,1.07,2.95,2.66,2.56ZM772.99,180.95c-.47-6.29-2.94-9.94-7.47-10.27-30.28-3.71-63.45,75.98-35.41,79.39,11.6.72,26.61-14.04,35.11-34.35-.2-.86-.34-1.5-.54-2.36-6.17-5.64-8.26-13.95-5.73-20.59,1.74-4.54,5.76-8.17,12.2-9.49,1.08-.22,1.93-1.27,1.85-2.33ZM691.84,130.64c14.32,4,33.1-9.02,33.35-23.42.29-10.2-3.9-15.79-12.08-17.82-18.53-4.92-35.19,8.42-34.15,25.61-.56,7.8,4.77,13.43,12.88,15.63Z" />
    <path class="al"
          d="M205.48,17.81c-24.65,68.2-31.53,140.66-48.72,210.37-.01.06-.02.12-.03.17-10.21,66.91-119.65,128.79-156.01,55.58-.04-.08-.07-.17-.11-.25-8.76-22.79-8.01-43.18,12.48-62.27,4.99-4.64,11.04-7.17,18.07-6.52,9.2.9,3.25,9.28.81,13.86-.02.04-.03.07-.05.11-4.83,11.76-1.8,22.51,4.38,32.31.07.09.13.18.2.27,12.84,15.66,40.69,12.27,54.79-.8,19.51-17.01,24.67-42.88,30.85-66.25,5.51-24.18,28.1-137.43,39.25-158.15,1.61-3.21,3.85-6.43,6.32-9.59,5.98-7.65-1.58-17.84-11.49-15.38-.07.02-.13.03-.2.05-21.28,5.6-41.01,14.11-55.59,30.65-13.65,16.05-22.63,46.03,3.6,54.19,8.41,2.61,16.37,5.96,12.3,15.89-5.04,14.35-18.84,21.84-34.26,17.89-27.78-7.36-39.23-22.58-40.8-47.97C39.06,23.42,113.55-18.38,172.46-17.57c15.81-.06,31.83.95,47.44-3.94,10.56-3.28,12.2,6.49,8.34,13.33-.02.04-.04.08-.06.12-.68,1.81-3.2,3.38-5.46,4.56-.05.02-.1.05-.14.07-9.66,4.26-13.87,12.36-17.1,21.24ZM497.08,92.65c-9.68,8.05-8.68,30.83,7.79,33.86,14.51,3.23,32.37-10.78,32.03-25.18-.26-10.2-4.92-15.73-13.02-17.14-9.75-1.71-20.14,1.23-26.8,8.46ZM1021.91,220.97s0,.08,0,.12c2.91,29.77,8.36,64.32-25.04,79.33-20.49,10.43-48.81,4.98-60.19-15.71-2.2-4.51,4.2-12.26,7.43-15.78,3.14-3.67,8.36-4.23,10.3-.62,2.61,4.84,5.05,9.94,9.51,11.37,8.44,2.69,18.33-1.93,24.08-16.62,4.38-11.21,4.23-21.4.94-33.45t0,0c-.96-4.37-4.18-6.03-6.82-2.76-27.46,25.48-52.71,63.31-93.82,63.3-20.04.37-19-3.87-26.78-17.99-.58-1.06-1.92-1.49-3.02-.97-6.65,3.17-12.81,6.35-18.91,9.06-22.89,11.05-63.09-3.27-47.25-33.12,4.6-9.5,8.26-16.34,13.46-25.5-5.72,1.99-10.19.39-15.84.26-13.3,29.93-39.7,54.04-70.79,52.17-17.42-1.05-29.41-12.38-32.33-29.41-18.35,19.94-62.23,39.68-70.35.95-33.26,23.99-88.51,34.22-107.52-8.44-17.2,23.16-64.62,48.94-73.61,5.82-8.47,9.75-16.09,19.66-28.04,25.2-.11.04-.22.09-.33.13-24.35,7.97-42.4-11.95-42.96-35.1-10.99,14.97-21.1,30.96-37.41,39.62-.12.05-.23.1-.35.15-22.87,8.22-41.58-9.42-43.54-31.62,0,0,0,0,0,0-40.97,66.26-135.36,58.26-111.34-31.14,12.8-43.37,44.14-68.54,70.25-70.74,19.03-1.51,31.01,7.85,32.85,25.47,3.03,34.22-32.42,58.23-65.7,61.6-.72.64-1.22,1.08-1.94,1.72-1.95,10.23-2.66,19.62,2.08,23.56,8.73,8.33,31.54,3.57,37.24,1.03,11.45-4.05,29.72-24.59,35.44-33.71.66-1.52,1.31-3.01,1.97-4.53.51-1.86,1.03-3.71,1.54-5.57,0,0,0,0,0,.01,13.04-51.84,27.52-106.67,50.01-153.5,15.35-31.34,34.17-46.26,61.46-42.83.09.01.17.03.26.04,18.52,3.41,26.58,18.24,20.75,37.41-12,34.02-30.38,54.08-53.61,84.46-7.09,8.75-17.65,25.23-28.09,37.01-2.54,2.86-4.31,6.26-5.29,9.9-3.28,12.22-7.14,24.84-10.05,36.85-3.42,14.25,15.56,22.74,24.37,10.91,7.57-10.16,15.15-21.23,21.21-29.65,2.3-3.2,4.04-6.74,5.13-10.49,13.7-47.03,28.2-96.06,49.85-138,16.11-30.96,35.28-45.42,62.48-41.33.08.02.17.03.26.05,18.44,3.85,26.13,18.88,19.84,37.9-14.72,39.4-54.52,83.35-86.24,116.3-.22.23-.37.5-.45.8-4.57,17.31-11.64,36.8-15.91,54.59-3.02,12.66,13.65,20.47,21.91,10.3,9.4-11.57,19.18-25.27,26.37-34.91,1.24-2.1,2.46-4.16,3.7-6.26,6.45-14.15,13.14-28.34,19.81-42.61,3.05-6.94,8.1-8.58,15.94-9.47,7.08-.82,25.47-3.33,21.13,9.48,0,0,0,.01,0,.02-2.24,4.99-32.76,69.46-35.43,76.44,0,0,0,.01-.01.02-2.1,4.22-5.99,9.68-1.65,13.82,5.57,4.72,10.39-.73,14.66-3.17,5.13-3.02,9.37-6.91,13.61-10.79.07-.07.13-.14.2-.21,3.15-3.71,5.57-10.11,6.5-12.94,0-.03.01-.05.02-.08,6.73-32.45,29.86-53.85,52.38-64.08,42.98-19.62,84.81-3.24,57.34,38.98-10.09,17.73-43.04,14.34-35.08-2.34,2.23-4.41,5.08-8.5,7.34-12.9.04-.1.09-.21.13-.31,1.28-3.53,1.61-7.35-2.67-9.51-3.71-2.17-8.13-1.06-15.1,4.83-18.25,16.62-45.81,68.78-2.7,75.27,18.3,2.37,36.12-3.49,48.76-15.12,1.89-1.74,3.94-5.27,4.87-7.22,11.17-22.77,23.49-45.45,35.74-68.37,3.42-6.77,8.6-7.63,16.43-8.6,19.53-2.4,29.65-1.93,15.44,20.18-.02.04-.06.1-.08.14-11.63,21.53-23.05,43.11-34.28,64.75-2.32,4.11-6.51,9.35-2.4,13.71,5.31,5.02,10.41-.17,14.81-2.37,5.3-2.75,9.76-6.42,14.22-10.08.05-.04.1-.09.15-.13,6.16-5.81,9.33-18.99,13.96-26.77.03-.06.06-.12.09-.18,21.28-54.76,117.76-64.56,97.61,9.12,4.83,1.48,10.41,1.62,16.67.07,1.54-.38,2.84-1.39,3.61-2.74,7.37-12.93,16.29-24.78,24.62-37.3,3.74-6.28,9.09-9.39,16.96-8.92,5.64.55,11.11-.4,16.72.48,9.06,1.24,11.14,5.39,6.23,13.02-16.37,24.16-32.79,48.02-46,73.81-3.05,6.34-.87,9.25,6.55,8.76,10.22-.83,18.64-5.09,23.88-13.91,8.59-15.96,32.02-51.49,42.57-67.22,7.92-12.07,23.91-8.75,36.5-7.16.09.02.18.03.27.05,10.77,2.84,2.3,13.78-1.53,19.1-.02.03-.03.05-.05.07-4.7,7.58-40.16,60.36-42.61,67.11-6.66,17.48,25.9,9.03,32.13,2.1.06-.06.12-.11.19-.17,17.88-13.19,53.7-62.16,71.96-75.12,9.52-7.6,41.73-6.96,49.94,2.07,5.54,8.43-32.65,10.69-31.5,38.76ZM488.64,38.44c1.53-5.79.23-14.58-5.59-15.02-.08,0-.17,0-.25,0-3.28.13-11.63,4.44-28.94,41.71-9.33,20.26-18.36,44.39-25.08,63.77,22.43-28.02,49.68-55.25,59.85-90.45ZM386,77.31c6.59-10.61,13.89-22.99,16.32-36.1,1.39-5.82-.12-14.58-5.95-14.88-.08,0-.17,0-.25,0-3.28.21-11.51,4.72-27.92,42.4-8.9,20.47-25.67,62.46-31.77,82.01,14.15-17.84,37.26-53.78,49.56-73.43ZM212.2,207.23c20.23-4.9,38.52-27.98,30.86-42.6-.31-.31-.6-.6-.91-.9-10.5-5.24-23.6,13.45-32.53,40.68-.03.09-.05.18-.08.27,0,0,0,0,0,0-.38,1.55,1.07,2.95,2.66,2.56ZM772.99,180.95c-.47-6.29-2.94-9.94-7.47-10.27-30.28-3.71-63.45,75.98-35.41,79.39,11.6.72,26.61-14.04,35.11-34.35-.2-.86-.34-1.5-.54-2.36-6.17-5.64-8.26-13.95-5.73-20.59,1.74-4.54,5.76-8.17,12.2-9.49,1.08-.22,1.93-1.27,1.85-2.33ZM691.84,130.64c14.32,4,33.1-9.02,33.35-23.42.29-10.2-3.9-15.79-12.08-17.82-18.53-4.92-35.19,8.42-34.15,25.61-.56,7.8,4.77,13.43,12.88,15.63Z" />
    <path class="bd"
          d="M205.48,17.81c-24.65,68.2-31.53,140.66-48.72,210.37-.01.06-.02.12-.03.17-10.21,66.91-119.65,128.79-156.01,55.58-.04-.08-.07-.17-.11-.25-8.76-22.79-8.01-43.18,12.48-62.27,4.99-4.64,11.04-7.17,18.07-6.52,9.2.9,3.25,9.28.81,13.86-.02.04-.03.07-.05.11-4.83,11.76-1.8,22.51,4.38,32.31.07.09.13.18.2.27,12.84,15.66,40.69,12.27,54.79-.8,19.51-17.01,24.67-42.88,30.85-66.25,5.51-24.18,28.1-137.43,39.25-158.15,1.61-3.21,3.85-6.43,6.32-9.59,5.98-7.65-1.58-17.84-11.49-15.38-.07.02-.13.03-.2.05-21.28,5.6-41.01,14.11-55.59,30.65-13.65,16.05-22.63,46.03,3.6,54.19,8.41,2.61,16.37,5.96,12.3,15.89-5.04,14.35-18.84,21.84-34.26,17.89-27.78-7.36-39.23-22.58-40.8-47.97C39.06,23.42,113.55-18.38,172.46-17.57c15.81-.06,31.83.95,47.44-3.94,10.56-3.28,12.2,6.49,8.34,13.33-.02.04-.04.08-.06.12-.68,1.81-3.2,3.38-5.46,4.56-.05.02-.1.05-.14.07-9.66,4.26-13.87,12.36-17.1,21.24ZM497.08,92.65c-9.68,8.05-8.68,30.83,7.79,33.86,14.51,3.23,32.37-10.78,32.03-25.18-.26-10.2-4.92-15.73-13.02-17.14-9.75-1.71-20.14,1.23-26.8,8.46ZM1021.91,220.97s0,.08,0,.12c2.91,29.77,8.36,64.32-25.04,79.33-20.49,10.43-48.81,4.98-60.19-15.71-2.2-4.51,4.2-12.26,7.43-15.78,3.14-3.67,8.36-4.23,10.3-.62,2.61,4.84,5.05,9.94,9.51,11.37,8.44,2.69,18.33-1.93,24.08-16.62,4.38-11.21,4.23-21.4.94-33.45t0,0c-.96-4.37-4.18-6.03-6.82-2.76-27.46,25.48-52.71,63.31-93.82,63.3-20.04.37-19-3.87-26.78-17.99-.58-1.06-1.92-1.49-3.02-.97-6.65,3.17-12.81,6.35-18.91,9.06-22.89,11.05-63.09-3.27-47.25-33.12,4.6-9.5,8.26-16.34,13.46-25.5-5.72,1.99-10.19.39-15.84.26-13.3,29.93-39.7,54.04-70.79,52.17-17.42-1.05-29.41-12.38-32.33-29.41-18.35,19.94-62.23,39.68-70.35.95-33.26,23.99-88.51,34.22-107.52-8.44-17.2,23.16-64.62,48.94-73.61,5.82-8.47,9.75-16.09,19.66-28.04,25.2-.11.04-.22.09-.33.13-24.35,7.97-42.4-11.95-42.96-35.1-10.99,14.97-21.1,30.96-37.41,39.62-.12.05-.23.1-.35.15-22.87,8.22-41.58-9.42-43.54-31.62,0,0,0,0,0,0-40.97,66.26-135.36,58.26-111.34-31.14,12.8-43.37,44.14-68.54,70.25-70.74,19.03-1.51,31.01,7.85,32.85,25.47,3.03,34.22-32.42,58.23-65.7,61.6-.72.64-1.22,1.08-1.94,1.72-1.95,10.23-2.66,19.62,2.08,23.56,8.73,8.33,31.54,3.57,37.24,1.03,11.45-4.05,29.72-24.59,35.44-33.71.66-1.52,1.31-3.01,1.97-4.53.51-1.86,1.03-3.71,1.54-5.57,0,0,0,0,0,.01,13.04-51.84,27.52-106.67,50.01-153.5,15.35-31.34,34.17-46.26,61.46-42.83.09.01.17.03.26.04,18.52,3.41,26.58,18.24,20.75,37.41-12,34.02-30.38,54.08-53.61,84.46-7.09,8.75-17.65,25.23-28.09,37.01-2.54,2.86-4.31,6.26-5.29,9.9-3.28,12.22-7.14,24.84-10.05,36.85-3.42,14.25,15.56,22.74,24.37,10.91,7.57-10.16,15.15-21.23,21.21-29.65,2.3-3.2,4.04-6.74,5.13-10.49,13.7-47.03,28.2-96.06,49.85-138,16.11-30.96,35.28-45.42,62.48-41.33.08.02.17.03.26.05,18.44,3.85,26.13,18.88,19.84,37.9-14.72,39.4-54.52,83.35-86.24,116.3-.22.23-.37.5-.45.8-4.57,17.31-11.64,36.8-15.91,54.59-3.02,12.66,13.65,20.47,21.91,10.3,9.4-11.57,19.18-25.27,26.37-34.91,1.24-2.1,2.46-4.16,3.7-6.26,6.45-14.15,13.14-28.34,19.81-42.61,3.05-6.94,8.1-8.58,15.94-9.47,7.08-.82,25.47-3.33,21.13,9.48,0,0,0,.01,0,.02-2.24,4.99-32.76,69.46-35.43,76.44,0,0,0,.01-.01.02-2.1,4.22-5.99,9.68-1.65,13.82,5.57,4.72,10.39-.73,14.66-3.17,5.13-3.02,9.37-6.91,13.61-10.79.07-.07.13-.14.2-.21,3.15-3.71,5.57-10.11,6.5-12.94,0-.03.01-.05.02-.08,6.73-32.45,29.86-53.85,52.38-64.08,42.98-19.62,84.81-3.24,57.34,38.98-10.09,17.73-43.04,14.34-35.08-2.34,2.23-4.41,5.08-8.5,7.34-12.9.04-.1.09-.21.13-.31,1.28-3.53,1.61-7.35-2.67-9.51-3.71-2.17-8.13-1.06-15.1,4.83-18.25,16.62-45.81,68.78-2.7,75.27,18.3,2.37,36.12-3.49,48.76-15.12,1.89-1.74,3.94-5.27,4.87-7.22,11.17-22.77,23.49-45.45,35.74-68.37,3.42-6.77,8.6-7.63,16.43-8.6,19.53-2.4,29.65-1.93,15.44,20.18-.02.04-.06.1-.08.14-11.63,21.53-23.05,43.11-34.28,64.75-2.32,4.11-6.51,9.35-2.4,13.71,5.31,5.02,10.41-.17,14.81-2.37,5.3-2.75,9.76-6.42,14.22-10.08.05-.04.1-.09.15-.13,6.16-5.81,9.33-18.99,13.96-26.77.03-.06.06-.12.09-.18,21.28-54.76,117.76-64.56,97.61,9.12,4.83,1.48,10.41,1.62,16.67.07,1.54-.38,2.84-1.39,3.61-2.74,7.37-12.93,16.29-24.78,24.62-37.3,3.74-6.28,9.09-9.39,16.96-8.92,5.64.55,11.11-.4,16.72.48,9.06,1.24,11.14,5.39,6.23,13.02-16.37,24.16-32.79,48.02-46,73.81-3.05,6.34-.87,9.25,6.55,8.76,10.22-.83,18.64-5.09,23.88-13.91,8.59-15.96,32.02-51.49,42.57-67.22,7.92-12.07,23.91-8.75,36.5-7.16.09.02.18.03.27.05,10.77,2.84,2.3,13.78-1.53,19.1-.02.03-.03.05-.05.07-4.7,7.58-40.16,60.36-42.61,67.11-6.66,17.48,25.9,9.03,32.13,2.1.06-.06.12-.11.19-.17,17.88-13.19,53.7-62.16,71.96-75.12,9.52-7.6,41.73-6.96,49.94,2.07,5.54,8.43-32.65,10.69-31.5,38.76ZM488.64,38.44c1.53-5.79.23-14.58-5.59-15.02-.08,0-.17,0-.25,0-3.28.13-11.63,4.44-28.94,41.71-9.33,20.26-18.36,44.39-25.08,63.77,22.43-28.02,49.68-55.25,59.85-90.45ZM386,77.31c6.59-10.61,13.89-22.99,16.32-36.1,1.39-5.82-.12-14.58-5.95-14.88-.08,0-.17,0-.25,0-3.28.21-11.51,4.72-27.92,42.4-8.9,20.47-25.67,62.46-31.77,82.01,14.15-17.84,37.26-53.78,49.56-73.43ZM212.2,207.23c20.23-4.9,38.52-27.98,30.86-42.6-.31-.31-.6-.6-.91-.9-10.5-5.24-23.6,13.45-32.53,40.68-.03.09-.05.18-.08.27,0,0,0,0,0,0-.38,1.55,1.07,2.95,2.66,2.56ZM772.99,180.95c-.47-6.29-2.94-9.94-7.47-10.27-30.28-3.71-63.45,75.98-35.41,79.39,11.6.72,26.61-14.04,35.11-34.35-.2-.86-.34-1.5-.54-2.36-6.17-5.64-8.26-13.95-5.73-20.59,1.74-4.54,5.76-8.17,12.2-9.49,1.08-.22,1.93-1.27,1.85-2.33ZM691.84,130.64c14.32,4,33.1-9.02,33.35-23.42.29-10.2-3.9-15.79-12.08-17.82-18.53-4.92-35.19,8.42-34.15,25.61-.56,7.8,4.77,13.43,12.88,15.63Z" />
    <path class="aq"
          d="M157.77-16.89c4.98-.5,9.89-.73,14.69-.68,9.72-.03,19.54.33,29.28-.52,6.09-.53,12.15-1.54,18.16-3.43,1.11-.35,2.12-.55,3.04-.62,7.81-.63,8.75,7.83,5.3,13.96-.02.04-.04.08-.06.12-.68,1.81-3.2,3.38-5.46,4.56-.05.02-.1.05-.14.07-9.66,4.26-13.87,12.36-17.1,21.24-24.65,68.2-31.53,140.66-48.72,210.37-.01.06-.02.12-.03.17-6.02,42.42-52.51,82.02-94.24,87.92-24.68,3.41-48.15-4.96-61.76-32.34-.04-.08-.07-.17-.11-.25-8.76-22.79-8.01-43.18,12.48-62.27,3.68-3.43,7.94-5.7,12.74-6.4,1.71-.25,3.49-.3,5.33-.13,9.2.9,3.25,9.28.81,13.86-.02.04-.04.07-.05.11-4.83,11.76-1.8,22.51,4.38,32.31.07.09.13.18.2.27,7.22,8.82,19.18,11.58,30.77,10.01,9.03-1.22,17.84-5.07,24.01-10.81,19.51-17.01,24.67-42.88,30.85-66.25,5.51-24.18,28.1-137.43,39.25-158.15,1.61-3.21,3.85-6.43,6.32-9.59,5.61-7.18-.7-16.6-9.7-15.7-.59.06-1.19.16-1.79.31-.07.02-.13.03-.2.05-21.28,5.6-41.01,14.11-55.59,30.65-13.66,16.05-22.63,46.03,3.6,54.19,8.41,2.61,16.37,5.96,12.3,15.89-3.72,10.6-12.23,17.45-22.62,18.72-3.68.45-7.6.2-11.63-.83-27.78-7.36-39.23-22.58-40.8-47.97-1.92-53.71,60.52-93.46,116.53-98.86M474.2,9.15c3.03-.04,6.17.19,9.42.68.08.02.17.03.26.05,18.44,3.85,26.13,18.88,19.84,37.9-14.72,39.4-54.52,83.35-86.24,116.3-.22.23-.37.5-.45.8-4.57,17.31-11.64,36.8-15.91,54.59-2.1,8.76,5.26,15.19,12.7,14.96,3.32-.1,6.66-1.53,9.21-4.67,9.4-11.57,19.18-25.27,26.37-34.91,1.24-2.1,2.46-4.16,3.7-6.26,6.45-14.15,13.14-28.34,19.81-42.61,3.05-6.94,8.1-8.58,15.94-9.47,2.36-.27,5.97-.73,9.59-.76,7.23-.04,14.43,1.7,11.54,10.24,0,0,0,.01,0,.02-2.24,4.99-32.76,69.46-35.43,76.44,0,0,0,.01-.01.02-2.1,4.23-5.99,9.68-1.65,13.82,1.61,1.37,3.16,1.88,4.65,1.86,3.66-.04,6.97-3.3,10-5.03,5.13-3.02,9.37-6.91,13.61-10.79.07-.07.13-.14.2-.21,3.15-3.71,5.57-10.11,6.5-12.94,0-.03.01-.05.02-.08,6.73-32.45,29.86-53.85,52.38-64.08,12.66-5.81,25.32-8.47,36.1-8.23,25.71.6,40.44,17.48,21.23,47.21-4.75,8.36-14.54,11.99-22.75,11.81-9.26-.21-16.57-5.29-12.33-14.15,2.23-4.41,5.08-8.5,7.34-12.9.04-.1.09-.2.13-.31,1.28-3.53,1.61-7.35-2.67-9.51-1.11-.65-2.28-1-3.55-1.03-3.02-.06-6.65,1.72-11.55,5.86-18.25,16.63-45.81,68.78-2.7,75.27,2.34.3,4.66.47,6.97.51,15.79.27,30.76-5.48,41.79-15.63,1.89-1.74,3.94-5.27,4.87-7.22,11.17-22.77,23.49-45.45,35.74-68.37,3.42-6.77,8.6-7.63,16.43-8.6,5.41-.67,10.11-1.11,13.77-.93,9.53.48,11.92,5.13,1.67,21.11-.02.04-.06.1-.08.14-11.63,21.53-23.05,43.11-34.28,64.75-2.32,4.11-6.51,9.35-2.4,13.71,1.54,1.45,3.06,2.05,4.55,2.11,3.66.15,7.14-2.92,10.26-4.49,5.3-2.75,9.76-6.42,14.22-10.08.05-.04.1-.09.15-.13,6.16-5.81,9.33-18.99,13.96-26.77.03-.06.06-.12.09-.18,11.25-28.65,43.26-45.33,68.25-43.51,22.44,1.61,38.75,17.92,29.36,52.63,1.77.54,3.65.91,5.62,1.07,3.4.28,7.09-.02,11.05-1,1.54-.38,2.84-1.39,3.61-2.74,7.37-12.93,16.29-24.78,24.62-37.3,3.74-6.28,9.09-9.39,16.96-8.92,5.13.5,10.12-.24,15.2.28.51.05,1.02.12,1.53.2,9.06,1.24,11.14,5.39,6.23,13.02-16.37,24.16-32.79,48.02-46,73.81-2.59,5.37-1.41,8.28,3.5,8.74.89.09,1.91.09,3.05.01,10.22-.83,18.64-5.09,23.88-13.91,8.59-15.96,32.02-51.49,42.57-67.22,6.42-9.79,18.15-9.46,29.07-8.13,2.55.31,5.05.67,7.43.97.09.02.18.03.27.05,10.77,2.84,2.3,13.78-1.53,19.1-.02.03-.03.05-.05.07-4.7,7.58-40.16,60.36-42.61,67.11-2.56,6.73.68,9.61,5.97,10.22,8.49.97,22.33-3.82,26.16-8.12.06-.06.12-.11.19-.17,17.88-13.19,53.7-62.16,71.96-75.12,6.06-4.81,21.26-6.35,33.66-4.47,7.11,1.07,13.29,3.26,16.28,6.54,5.54,8.43-32.65,10.69-31.5,38.76,0,.04,0,.08,0,.12,2.91,29.77,8.36,64.32-25.04,79.33-8.79,4.49-19.03,6.02-28.74,4.7-12.93-1.76-24.96-8.59-31.45-20.42-2.2-4.51,4.2-12.26,7.43-15.78,1.9-2.22,4.56-3.3,6.79-3.01,1.46.19,2.74.96,3.51,2.39,2.61,4.84,5.05,9.94,9.51,11.37.86.27,1.74.47,2.62.59,7.79,1.05,16.29-4.02,21.45-17.22,4.38-11.21,4.23-21.4.94-33.45,0,0,0,0,0,0-.57-2.6-1.94-4.24-3.51-4.46-1.07-.15-2.24.37-3.31,1.7-27.46,25.48-52.71,63.31-93.82,63.3-3.62.06-6.55-.02-8.97-.28-10.99-1.19-11.43-6.14-17.81-17.7-.38-.68-1.06-1.1-1.79-1.18-.41-.04-.83.02-1.22.21-6.65,3.17-12.81,6.35-18.91,9.06-6.44,3.12-14.2,4.21-21.7,3.53-19.24-1.74-37.01-15.15-25.55-36.65,4.6-9.5,8.26-16.34,13.46-25.5-3.11,1.08-5.85,1.1-8.61.88-1.63-.13-3.27-.36-5-.5-.73-.06-1.47-.1-2.23-.12-13.3,29.93-39.7,54.04-70.79,52.17-17.42-1.05-29.41-12.38-32.33-29.41-10.89,11.94-30.99,23.67-47.05,23.1-10.89-.4-20-6.47-23.3-22.15-17.04,12.39-39.98,20.99-60.75,20.77-19.68-.22-37.52-8.39-46.76-29.2-10.27,13.98-31.64,28.75-48.86,29.06-11.44.2-21.15-6-24.75-23.25-8.47,9.75-16.09,19.66-28.04,25.2-.11.04-.22.09-.33.13-3.33,1.09-6.54,1.66-9.6,1.77-19.32.7-32.89-16.88-33.36-36.86-10.99,14.97-21.1,30.96-37.41,39.62-.12.05-.23.1-.35.16-3.26,1.17-6.43,1.82-9.48,2-18.35,1.11-32.4-14.58-34.06-33.62,0,0,0,0,0,0-16.73,26.93-41.87,41.39-64.42,43.44-33.14,3.01-61.67-21.13-46.91-74.59,12.8-43.37,44.14-68.54,70.25-70.74,19.03-1.51,31.01,7.85,32.85,25.47,3.03,34.22-32.42,58.23-65.7,61.6-.72.64-1.22,1.08-1.94,1.72-1.95,10.23-2.66,19.62,2.08,23.56,4.66,4.46,13.33,5.16,21.26,4.48,6.94-.6,13.32-2.25,15.98-3.45,11.45-4.05,29.72-24.59,35.44-33.71.66-1.52,1.31-3.01,1.97-4.53.51-1.86,1.03-3.71,1.54-5.57,0,0,0,0,0,.01,13.04-51.84,27.52-106.67,50.01-153.5,13.52-27.6,29.71-42.45,52.03-43.28,3.03-.11,6.17.04,9.43.45.08.01.17.03.26.04,18.52,3.41,26.58,18.24,20.75,37.41-12,34.02-30.38,54.08-53.61,84.46-7.09,8.74-17.65,25.23-28.09,37.01-2.54,2.86-4.31,6.26-5.29,9.9-3.28,12.22-7.14,24.84-10.05,36.85-2.38,9.85,5.99,16.94,14.25,16.49,3.7-.2,7.39-1.91,10.12-5.58,7.57-10.16,15.15-21.23,21.21-29.65,2.3-3.2,4.04-6.74,5.13-10.49,13.7-47.03,28.2-96.06,49.85-138,14.19-27.26,30.73-41.72,53.07-42M428.79,128.89c22.43-28.02,49.68-55.25,59.85-90.45,1.53-5.79.23-14.58-5.59-15.02-.08,0-.17,0-.25,0-3.28.13-11.63,4.44-28.94,41.71-9.33,20.26-18.36,44.39-25.08,63.77M336.45,150.74c14.15-17.84,37.26-53.78,49.56-73.43,6.59-10.61,13.89-22.99,16.32-36.1,1.39-5.82-.12-14.58-5.95-14.88-.08,0-.17,0-.25,0-3.28.21-11.51,4.72-27.92,42.4-8.9,20.47-25.67,62.46-31.77,82.01M211.86,207.29c.11-.01.22-.03.34-.06,20.23-4.9,38.52-27.98,30.86-42.6-.31-.31-.6-.6-.91-.9-1.41-.7-2.86-.97-4.35-.85-9.6.78-20.44,17.95-28.18,41.53-.03.09-.05.18-.08.27,0,0,0,0,0,0-.35,1.44.87,2.75,2.33,2.62M730.11,250.08c11.6.72,26.61-14.04,35.11-34.35-.2-.86-.34-1.5-.54-2.36-6.17-5.64-8.26-13.95-5.73-20.59,1.74-4.54,5.76-8.17,12.2-9.49,1.08-.22,1.93-1.27,1.85-2.33-.47-6.29-2.94-9.94-7.47-10.27,0,0,0,0,0,0-.28-.03-.56-.06-.84-.08-30.06-2.14-62.33,76.1-34.57,79.48M706.9,88.41c2.03.11,4.11.43,6.21.99,8.18,2.02,12.37,7.62,12.08,17.82-.22,12.97-15.49,24.81-28.95,24.13-1.49-.08-2.97-.31-4.4-.71-8.11-2.21-13.44-7.84-12.88-15.63-.91-15.23,12.05-27.45,27.94-26.6M518.42,83.71c1.82,0,3.65.16,5.45.47,8.1,1.42,12.76,6.94,13.02,17.14.31,12.97-14.16,25.61-27.61,25.65-1.49,0-2.98-.15-4.43-.47-16.46-3.03-17.47-25.81-7.79-33.86,5.43-5.89,13.33-8.94,21.35-8.93M157.17-22.86c-30.13,2.99-60.76,15-83.61,32.73-12.37,9.59-21.97,20.41-28.56,32.09-7.26,12.87-10.67,26.44-10.23,40.31,0,.03,0,.06,0,.09,0,.03,0,.06,0,.09.91,14.33,4.85,25.45,11.95,34.01,7.46,9,18.43,15.27,33.5,19.27,0,0,.02,0,.03,0,0,0,.02,0,.03,0,4.77,1.22,9.51,1.55,14.11.99,13-1.59,23.39-10.05,27.91-22.74,1.93-4.78,1.98-9.1.13-12.85-3-6.09-10-8.72-16.33-10.68-6.21-1.95-10.02-5.35-11.62-10.43-3.22-10.19,3.02-25.01,10.97-34.37,11.7-13.23,27.81-22.13,52.18-28.56.05-.01.1-.03.15-.04.26-.07.53-.11.78-.14,2.48-.25,3.75,1.45,4.08,1.98.51.82,1.16,2.46-.28,4.31-3.12,4.01-5.32,7.37-6.92,10.56-8.08,15.5-21.94,76.44-31.23,120.99-3.55,16.85-6.54,31.41-8.19,38.27-.51,1.93-1.01,3.87-1.51,5.83-5.41,21.14-10.89,42.97-27.34,57.32-.02.02-.05.04-.07.06-.02.02-.05.04-.07.07-5.13,4.78-12.63,8.12-20.6,9.2-10.65,1.44-19.75-1.34-25.03-7.68-6.01-9.62-7.28-18.07-3.85-26.57.21-.39.45-.81.7-1.24,2.47-4.35,5.87-10.3,2.96-15.72-1.15-2.15-3.72-4.84-9.39-5.39-2.35-.22-4.66-.16-6.89.16-5.93.86-11.38,3.57-16.18,8.04-20.46,19.06-24.64,40.97-13.9,68.72.02.04.03.09.05.13.02.04.04.08.06.13.02.04.04.08.06.13.02.04.04.08.05.12.02.04.04.08.06.13.02.04.04.08.06.12,7.11,14.26,17.07,24.48,29.59,30.46,11.35,5.41,24.26,7.13,38.49,5.16,21.63-3.01,44.73-14.57,63.77-31.79,17.37-15.73,29.32-34.18,34.11-52.91.14,18.04,6.34,29.69,12.59,36.92,10.47,12.09,26.84,17.99,45.08,16.35,12.59-1.14,25.41-5.75,37.17-13.35,8.86-5.72,16.96-13.09,23.92-21.68,2.16,5.33,5.27,10.15,9.19,14.16,7.61,7.79,17.54,11.71,28.03,11.07,3.7-.22,7.45-1.01,11.17-2.35.07-.02.14-.05.21-.07.07-.03.13-.06.2-.09.04-.02.07-.03.11-.05.08-.04.16-.07.24-.11.07-.03.13-.06.2-.09.06-.03.13-.07.19-.1,13.24-7.02,22.53-18.2,31.06-29.77,2.4,7.05,6.35,13.31,11.55,18.13,7.15,6.63,15.95,9.94,25.52,9.59,3.7-.13,7.49-.83,11.28-2.06.06-.02.12-.04.17-.06.06-.02.11-.04.17-.07.05-.02.11-.04.16-.06.06-.02.11-.04.17-.07.06-.02.11-.04.17-.07.05-.03.11-.05.16-.08,9.62-4.46,16.63-11.35,23.02-18.56,7.04,15,19.59,17.3,27.31,17.17,16.41-.3,35.32-11.69,47.62-24.39,10.21,15.74,26.81,24.29,47.83,24.53,18.41.2,39.62-6.28,57.38-17.21,6.39,15.39,18.92,18.31,26.51,18.59,15.02.54,31.97-7.79,44.2-17.88,6,14.25,18.68,23.19,35.04,24.17,16.15.97,32.06-4.36,46.22-15.45,11.51-9.02,21.62-21.82,28.77-36.4.1.01.21.02.31.03.31.03.63.07.96.1-2.93,5.43-5.4,10.3-8.2,16.11-6.69,12.62-4.24,22.08-1.06,27.79,5.36,9.58,17.42,16.25,31.55,17.53,8.88.8,17.68-.64,24.82-4.07,4.19-1.86,8.3-3.89,12.67-6.03,1-.49,2.01-.99,3.03-1.48.35.66.68,1.3.99,1.91,4.31,8.37,7.39,14.39,19.82,15.74,2.64.29,5.72.39,9.69.32,15.91-.02,29.54-5.21,41.76-13,.07,1.47.43,2.85,1.06,4.15.02.04.04.09.06.13.02.04.05.09.07.13,7.06,12.83,20.13,21.36,35.99,23.52,11.12,1.51,22.54-.34,32.23-5.25,15.71-7.14,25.22-18.69,28.93-35.48,3.09-13.97,1.65-29.2.19-43.92-.19-1.92-.38-3.82-.55-5.7-.44-13.46,10.83-19.54,19.96-24.37,5.95-3.15,10.66-5.62,11.91-10.32.43-1.64.57-4.17-1.25-6.95-.09-.14-.18-.27-.27-.41-.11-.12-.22-.24-.33-.36-4.82-5.28-13.6-7.59-20.11-8.57-13.04-1.98-30.44-.61-38.5,5.67-9.34,6.75-22.31,21.4-35.83,36.99-13.49,15.54-27.21,31.7-35.89,38.04-.09.07-.18.13-.27.2-.08.08-.17.15-.25.23-.03.03-.07.06-.1.09-.03.03-.06.05-.08.08-.08.07-.15.14-.23.21-.07.08-.14.16-.21.24-2.16,2.43-13.86,6.9-20.82,6.11-.69-.08-1.14-.2-1.41-.29.04-.35.15-.94.5-1.84,1.43-3.74,17.96-29.28,28.04-44.46,6.83-10.33,12.31-18.52,14.15-21.56.1-.14.21-.28.31-.43,3.78-5.22,9.55-13.09,6.77-20.35-.97-2.52-3.36-5.86-9.22-7.4-.07-.02-.14-.04-.21-.06-.07-.01-.14-.03-.22-.04-.05,0-.09-.02-.14-.03-.04,0-.09-.02-.13-.03-.07-.01-.14-.03-.21-.04-.07,0-.14-.02-.22-.03-1.11-.14-2.24-.29-3.39-.45-1.33-.18-2.69-.36-4.06-.53-8.42-1.04-26.01-3.08-35.12,10.86-1.34,2.02-2.92,4.4-4.66,7.02-11.51,17.3-30.35,46.37-37.96,60.48-3.94,6.6-10.15,10.14-18.99,10.86-.22.01-.43.02-.63.03.02-.05.05-.1.08-.16,11.31-21.97,25.31-43.04,39.08-63.33,2.22-3.27,4.45-6.54,6.67-9.82.01-.02.03-.04.04-.06.01-.02.03-.04.04-.06,1.35-2.1,5.48-8.48,2.44-14.64-1.99-4.04-6.41-6.57-13.13-7.49-.59-.09-1.19-.17-1.81-.23-2.94-.3-5.71-.24-8.39-.18-2.4.06-4.66.11-6.83-.1-.04,0-.08,0-.13-.01-.04,0-.08,0-.13,0-9.99-.6-17.64,3.38-22.67,11.78-2.8,4.22-5.73,8.44-8.55,12.54-5.49,7.96-11.14,16.21-16.06,24.87-2.6.63-5.09.92-7.43.86,3.89-19.67-.92-31.77-6.02-38.62-6.55-8.81-17.37-14.23-30.4-15.16-13.81-.99-29.55,3.1-43.05,11.22-14.47,8.69-25.54,21.43-31.28,35.78-1.86,3.22-3.46,7.07-5,10.8-2.22,5.38-4.72,11.48-7.6,14.26-4.27,3.52-8.31,6.84-13.01,9.28-1.08.55-2.1,1.17-3.08,1.78-1.17.72-3.34,2.06-4.08,2.03,0,0-.16-.09-.39-.29,0,0,0-.01-.01-.02-.02-.94,1.53-3.5,2.28-4.75.39-.64.76-1.26,1.1-1.86.02-.03.03-.06.05-.09.02-.03.03-.06.05-.09,11.23-21.58,22.66-43.1,34.3-64.57,7.26-11.34,9.15-18.44,6.21-23.78-.42-.77-.92-1.45-1.47-2.04,7.07-.83,14.29-4.08,20.07-9.17,6.58-5.79,10.45-13.29,10.59-20.61.47-16.02-8.85-21.79-16.79-23.77-2.49-.66-5.03-1.06-7.54-1.2-9.37-.5-18.52,2.77-25.06,8.95-6.53,6.16-9.98,14.75-9.55,23.58-.39,7.42,3.26,13.93,9.7,18.05-2.56.19-5.23.49-7.85.81-7.61.94-16.24,2.04-21.22,11.87-4,7.51-8.07,15.11-11.98,22.46-8.01,15.05-16.18,30.64-23.69,46,0,.01-.01.02-.02.04,0,.01-.01.03-.02.04-.95,2.02-2.59,4.53-3.5,5.37-9.94,9.15-23.55,14.23-37.47,13.99-2.06-.04-4.15-.19-6.2-.45-9.22-1.44-14.69-5.11-16.71-11.29-4.91-14.9,10.27-42.14,22.77-53.61,4.9-4.12,6.86-4.29,7.21-4.29.07,0,.17,0,.42.15.06.03.11.07.17.1.06.03.12.06.18.09.07.03.12.07.17.09,0,.27-.06.87-.43,1.94-1,1.93-2.14,3.83-3.34,5.84-1.32,2.2-2.68,4.48-3.9,6.9,0,.02-.02.04-.03.06,0,.02-.02.04-.03.06-2.51,5.24-2.38,10.43.33,14.61,3.21,4.96,9.59,7.88,17.51,8.06,9,.2,21.74-3.52,28.25-14.77,12.77-19.87,10.61-32.92,6.4-40.4-5.42-9.68-17.42-15.51-32.86-15.85-12.27-.28-25.78,2.77-38.97,8.82-13.02,5.94-24.84,14.68-34.14,25.23-10.94,12.41-18.14,26.82-21.49,42.78-1.13,3.37-3.09,7.99-5.13,10.5-3.85,3.53-7.83,7.17-12.34,9.84-1.05.6-2.03,1.28-2.98,1.94-1.13.78-3.23,2.24-3.97,2.25-.01,0-.16-.08-.41-.27,0,0-.01-.01-.02-.02-.07-.93,1.34-3.58,2.02-4.87.35-.66.69-1.3,1-1.91.02-.03.03-.06.05-.1.01-.03.03-.07.04-.1,0,0,0-.01,0-.02,0-.01.01-.03.02-.04.01-.02.02-.05.03-.07.01-.02.02-.05.03-.07,1.34-3.27,9.29-20.59,17.15-37.31,10.35-22.04,17.39-36.63,18.43-39.19.01-.04.03-.07.04-.11.01-.04.03-.07.04-.11,0-.02.01-.04.02-.06,0-.03.02-.05.03-.08,2.06-6.06.43-10.05-1.32-12.33-.78-1.02-1.71-1.9-2.82-2.65,7.68-.7,15.62-4.46,21.71-10.36,6.35-6.15,9.91-13.9,9.74-21.3-.4-17.19-11.57-21.75-18.2-22.91-2.18-.38-4.41-.58-6.63-.58-10.04,0-19.48,3.92-25.9,10.72-6.91,6.02-9.75,17.47-6.85,27.41,1.82,6.24,5.59,11.07,10.73,13.96-2.83.12-5.47.42-7.49.66-.27.03-.54.06-.81.09-7.75.88-16.41,2.73-20.96,13.06-3.59,7.71-7.24,15.51-10.75,23.07-2.93,6.3-5.93,12.81-8.84,19.22-.56.95-1.12,1.9-1.69,2.86-.56.95-1.12,1.9-1.68,2.86-1.26,1.7-2.61,3.53-4.01,5.44-6.44,8.75-14.38,19.67-21.94,28.99-1.25,1.53-2.79,2.34-4.59,2.4-2.05.06-4.14-.87-5.44-2.43-1.2-1.44-1.57-3.18-1.09-5.17,2.25-9.26,5.32-19.19,8.32-28.8,2.57-8.21,5.24-16.69,7.39-24.66,45.15-46.61,75.19-85.76,87.02-117.64.01-.03.02-.06.04-.1.01-.03.02-.07.03-.1,3.9-11.76,3.22-22.46-2.07-30.95-4.61-7.4-12.39-12.45-22.49-14.56-.03,0-.06-.01-.1-.02-.03,0-.06-.01-.1-.02-.02,0-.04,0-.06-.01-.07-.01-.14-.02-.21-.04-.03,0-.06-.01-.09-.02-.03,0-.06,0-.09-.01-3.6-.54-7.16-.8-10.56-.76-19.14.24-35.03,9.49-48.72,28.71-.74-3.98-2.21-7.66-4.38-10.97-4.78-7.29-12.69-12.15-22.83-14.01-.03,0-.06-.01-.1-.02-.03,0-.06-.01-.1-.02-.02,0-.04,0-.06,0-.07-.01-.14-.02-.21-.03-.03,0-.06,0-.09-.01-.03,0-.06,0-.09-.01-3.62-.46-7.17-.62-10.57-.5-24.01.88-42.55,15.83-57.69,46.82-22.57,47.16-36.85,101.41-49.98,153.9-.04.17-.08.34-.13.5t0,0c-.48,1.72-.95,3.45-1.43,5.17-.27.63-.55,1.25-.82,1.88-.27.62-.54,1.23-.8,1.85-5.66,8.82-22.56,27.47-31.98,30.8-.08.03-.17.06-.25.09-.08.04-.16.07-.24.11-1.91.86-7.67,2.38-13.95,2.92-7.77.67-13.92-.36-16.46-2.8-.05-.05-.1-.1-.15-.15-.05-.05-.11-.09-.16-.14-.82-.68-2.41-3.5-.5-15.08,21.35-2.87,42.04-13.4,54.79-28.11,10.1-11.67,14.84-25.36,13.54-39.67,0-.01,0-.02,0-.04,0-.01,0-.02,0-.04-1.06-10.25-5.26-18.54-12.2-23.93-6.89-5.36-16.37-7.76-27.36-6.88-14.93,1.28-30.63,8.98-44.05,21.66-10.93,10.32-19.85,23.41-26.26,38.36,3.61-17.39,6.89-34.8,10.17-51.88,7.8-40.55,16.23-82.48,30.64-122.01,3.04-8.32,6.54-14.52,13.68-17.66.03-.01.07-.03.1-.04.03-.02.07-.03.1-.05.02-.01.05-.02.07-.04.02-.01.05-.02.07-.03.04-.02.07-.03.11-.05.04-.02.07-.04.11-.06,3.08-1.61,6.78-3.9,8.33-7.5,2.73-5.05,3.8-12.31.05-17.44-2.56-3.5-6.88-5.28-11.85-4.88-1.47.12-3.03.43-4.61.93-4.98,1.56-10.42,2.58-16.63,3.12-7.21.63-14.75.56-22.05.51-2.19-.01-4.38-.03-6.56-.02-5.01-.05-10.2.19-15.43.71t0,0ZM447.43,96.59c4.3-10.9,8.46-20.71,12.34-29.11,12.58-27.04,19.7-34.96,22.49-37.27.49,1.52.76,4.18.1,6.75-6.35,22.14-20.11,41.33-34.93,59.62h0ZM358.85,108.05c5.39-13.61,11.02-27.17,15.33-37.11,11.92-27.33,18.85-35.43,21.57-37.8.53,1.52.87,4.2.25,6.8-.01.05-.02.09-.03.14,0,.05-.02.09-.03.14-2.22,12.11-9.19,23.94-15.48,34.09-5.57,8.98-13.44,21.31-21.62,33.74h0ZM334.49,228.89c-2.46.13-4.97-.94-6.57-2.79-1.03-1.2-2.11-3.28-1.36-6.34,1.7-6.98,3.78-14.35,5.81-21.47,1.43-5.01,2.91-10.2,4.28-15.26.76-2.81,2.14-5.41,4.01-7.5,6.84-7.7,13.54-17.1,19.49-25.37,3.26-4.52,6.35-8.79,8.84-11.87.02-.02.04-.04.05-.07.02-.02.03-.05.05-.07,2.9-3.8,5.74-7.44,8.5-10.96,3.65-4.67,7.18-9.15,10.56-13.55-7.69,22.18-14.44,44.93-20.94,67.32-.64,2.2-1.28,4.4-1.91,6.6-.9,3.1-2.32,6.02-4.23,8.68-1.73,2.4-3.58,5.02-5.52,7.78-4.81,6.83-10.22,14.57-15.58,21.77-1.45,1.94-3.29,2.99-5.48,3.11t0,0ZM218.22,198.6c7.9-20.64,16.12-29.16,19.87-29.72,1.37,4.27-.41,9.07-1.69,11.72-3.58,7.4-10.51,14.1-18.18,18t0,0ZM730.68,244.1c-4.94-.78-5.37-7.63-4.84-13.28,1.02-10.93,6.69-25.31,14.55-36.61,8.01-11.53,16.97-18.11,23.86-17.62.17.01.34.03.51.05.05,0,.11.01.16.02.05,0,.11,0,.16.01.36.03.38.06.55.29.14.2.39.63.63,1.41-6.33,2.18-10.94,6.47-13.16,12.29-3.13,8.28-.92,18.03,5.38,25.08-7.9,17.46-20.4,28.61-27.81,28.35h0ZM956.27,261.64c4.91-4.8,9.62-9.73,14.23-14.52,4.5-4.67,8.81-9.12,13.16-13.3,2.45,10.36,1.99,18.36-1.39,27.07-3.58,9.2-9.14,14.21-14.91,13.44-.52-.07-1.05-.19-1.56-.35-1.77-.57-3.79-4.37-5.42-7.43-.18-.34-.36-.67-.54-1.01-.87-1.61-2.09-2.93-3.57-3.9h0Z" />
    <path class="bf"
          d="M931.34,255.43c-5.14,5.73-28.09,12.4-32.32,4.88-.09,1.74.25,3.28,1.06,4.57,1.39,2.22,3.93,3.56,7.57,3.98,9.15,1.06,23.58-4.04,27.84-8.68.01-.01.03-.03.04-.04,9.46-6.94,23.47-23.38,37.25-39.19,12.71-14.61,26.04-29.62,34.67-35.8,5.32-4.21,19.38-6.01,32.06-4.07,6.03.92,10.86,2.6,13.66,4.7.92-1.12,1.1-2.27.24-3.58-8.2-9.03-40.41-9.67-49.94-2.07-18.26,12.96-54.07,61.91-71.95,75.11-.07.06-.13.12-.19.18Z" />
    <path class="ar"
          d="M941.12,287.13c-1.08-2.24,1.63-7.45,7.17-13.49,1.43-1.67,3.38-2.58,5.01-2.37.89.12,1.55.57,1.96,1.34.18.33.35.66.53.99,2.56,4.81,5.2,9.78,10.15,11.37.97.31,1.98.54,2.97.67,9.76,1.32,18.57-5.56,23.63-18.45,4.3-10.98,4.67-21.34,1.07-34.62-.75-3.4-2.71-5.64-5.23-5.99-.22-.03-.49-.04-.78-.04.6.76,1.07,1.8,1.35,3.07,0,0,0,0,0,0,3.29,12.06,3.44,22.24-.94,33.45-5.75,14.7-15.64,19.31-24.08,16.62-4.47-1.43-6.91-6.53-9.51-11.37-1.94-3.61-7.17-3.05-10.3.62-3.23,3.52-9.63,11.27-7.43,15.78,4.53,8.26,11.77,14.07,20.12,17.43-6.72-3.43-12.17-8.56-15.69-15.01Z" />
    <path class="bb"
          d="M840.17,255.29c-3.61.24-5.97-.33-7.1-1.7-.17,1.48.06,2.76.69,3.84,1.04,1.79,3.03,2.84,5.93,3.12,1,.1,2.14.1,3.38.02,11.6-.93,20.16-5.91,25.5-14.87,7.51-13.88,26.39-42.86,37.91-60.08,1.74-2.62,3.32-4.99,4.68-7.03,5.87-8.93,17.05-8.44,27.04-7.21,1.33.16,2.65.34,3.95.52,1.15.16,2.28.31,3.39.45.04,0,.09.02.13.03,1.59.43,2.41,1,2.87,1.49.48-3.01-.66-5.62-5.15-6.8-.09-.02-.19-.04-.28-.05-12.59-1.59-28.58-4.91-36.5,7.16-10.55,15.73-33.98,51.26-42.57,67.22-5.24,8.81-13.66,13.08-23.88,13.91Z" />
    <path class="as"
          d="M794.8,208.13c2.74,3,4.71,4.09,6.77,4.5,3.34.67,8.32,1.12,12.05.3,2.68-.59,4.65-1.58,6.22-3.97,5.2-7.92,10.43-16.02,15.73-23.67,2.88-4.16,5.87-8.45,8.75-12.77,3.52-5.89,8.3-8.41,15.07-8,0,0,2.79,0,2.8,0,2.83.04,2.24-.06,4.92-.05,2.52,0,4.97.09,7.37.33.47.05.94.11,1.41.18,2.22.3,4.88.93,6.18,2.2.76-4.16-2.13-6.59-8.68-7.49-5.61-.88-11.08.08-16.72-.48-7.86-.47-13.22,2.65-16.96,8.92-8.29,12.45-17.16,24.24-24.51,37.09-.84,1.48-2.25,2.59-3.95,3-5.57,1.34-12.03.97-16.46-.12" />
    <path class="bc"
          d="M809.08,221.12c-1.23.22-2.02.33-3.27.51-4.72,8.37-9.26,16.84-13.46,25.5-9.27,17.36.57,29.45,14.79,34.37-5.14-2.38-9.17-5.79-11.44-9.88-3.24-5.84-3.03-13.7,1.07-21.34,4.08-8.41,8.5-18.32,14.56-28.94.41-.73-1.31-.42-2.25-.23" />
    <path class="bm" d="M868.82,279.78c-.8-1.57-1.71-3.34-2.78-5.29-.68-1.24-1.99-2.27-3.31-2.82-.78-.33-2.17-.6-2.64-.63,3.09.46,5.73,16.19,15.24,18.09-2.59-1.7-4.05-4.55-6.51-9.35Z" />
    <path class="au"
          d="M774.48,188.46c2.09-.43,3.62-2.36,3.47-4.4-.68-9.38-5.51-11.65-8.75-12.08,2.21,1.62,3.47,4.68,3.79,8.99.08,1.06-.77,2.1-1.84,2.32-6.45,1.32-10.47,4.95-12.21,9.49-2.53,6.65-.43,14.96,5.73,20.59.2.86.34,1.5.54,2.36-8.49,20.32-23.51,35.08-35.11,34.36-4.77-.6-7.76-3.41-9.29-7.64,1.27,7.45,5.37,11.99,11.9,12.81.04,0,.08,0,.13.01,12.62.8,28.16-14.13,37.14-35.56.16-.37.19-.79.1-1.18-.18-.79-.36-1.57-.53-2.36-.09-.39-.3-.75-.6-1.03-5.4-4.95-7.5-12.36-5.18-18.45,1.65-4.28,5.35-7.13,10.71-8.22Z" />
    <path class="bg"
          d="M697.2,199.01c-.03.06-.06.13-.09.19-4.62,7.78-7.79,20.96-13.95,26.77-.05.04-.1.09-.15.13-4.46,3.66-8.91,7.33-14.22,10.08-4.4,2.21-9.5,7.39-14.81,2.37-.33-.35-.59-.71-.82-1.07-.02,1.87.58,3.76,2.25,5.55.03.03.05.06.08.08,1.78,1.69,3.75,2.59,5.87,2.68,3.28.14,6.19-1.66,8.77-3.24.89-.55,1.72-1.06,2.5-1.45,5.54-2.87,10.14-6.66,14.6-10.32.07-.06.13-.11.2-.17,4.22-3.97,6.99-10.66,9.68-17.13,1.56-3.76,3.05-7.31,4.71-10.11.03-.04.05-.09.07-.14.03-.06.06-.13.09-.19.02-.05.04-.09.06-.14,11.21-28.43,42.56-43.92,66.16-42.17,10.63.77,18.99,4.87,24.14,11.81,2.03,2.73,3.53,5.89,4.52,9.42-7.49-44.01-81.45-29.87-99.67,17.06Z" />
    <path class="az" d="M686.85,244.65c2.81,15.36,11.65,24.25,23.31,27.81-9.74-4.22-16.36-12.97-18.4-24.99-.13-.76-.69-1.38-1.44-1.6-.15-.04-3.31-1.22-3.47-1.23" />
    <path class="bq"
          d="M507.86,209.11s-.02.06-.02.09c-.93,2.82-3.35,9.22-6.5,12.93-.07.07-.14.14-.2.21-4.24,3.89-8.48,7.77-13.61,10.79-4.27,2.44-9.09,7.89-14.66,3.17-.35-.33-.63-.68-.87-1.02.08,1.87.78,3.73,2.55,5.42.03.03.06.05.09.08,1.87,1.59,3.89,2.38,6,2.36,3.28-.04,6.09-1.99,8.58-3.71.86-.59,1.66-1.15,2.42-1.58,5.38-3.16,9.74-7.17,13.98-11.05.03-.03.28-.29.28-.29.03-.03.07-.07.1-.1,3.64-4.28,6.19-11.48,6.89-13.59.01-.04.04-.15.05-.19,0-.04.02-.08.03-.11,8.11-38.95,38.51-56.87,51.28-62.62,11.84-5.42,24.34-8.26,35.13-8,12.31.29,21.67,4.56,25.63,11.64.37.66.68,1.36.96,2.07-3.57-20.02-34.53-24.87-65.73-10.55-22.51,10.23-45.64,31.62-52.37,64.07Z" />
    <path class="bn"
          d="M591.39,160.29c-1.25-.72-2.57-1.13-3.95-1.24,4.12,2.17,3.79,5.94,2.52,9.42-.04.1-.09.2-.13.31-2.27,4.39-5.11,8.49-7.34,12.9-3.6,7.51,1.12,12.31,8.29,13.72-1.57-.72-2.82-1.67-3.55-2.81-1.21-1.87-1.14-4.23.19-7,1.08-2.13,2.38-4.29,3.63-6.37,1.26-2.09,2.56-4.25,3.71-6.47.02-.04.19-.42.19-.42.02-.04.03-.08.05-.12,2.55-6.99-.53-10.34-3.6-11.91Z" />
    <path class="aw" d="M508.98,237.16c6.81,15.55,18.63,23.73,31.14,27.12-10.13-3.58-19.98-10.84-26.2-24.93-.29-.66-1.32-1.28-2.02-1.56-.71-.28-2.84-.64-2.92-.64" />
    <path class="bj"
          d="M618.25,223.96c-12.65,11.63-30.47,17.49-48.76,15.12-11.93-1.84-18.43-7.11-21.23-14.18.18.82.38,1.62.64,2.41,3.03,9.25,10.87,14.86,23.29,16.79,2.43.32,4.85.5,7.25.54,16.01.29,31.7-5.56,43.21-16.13,2.27-2.08,4.48-6.03,5.33-7.83,7.5-15.23,15.68-30.76,23.7-45.75,4-7.49,8.04-14.99,12.08-22.51,2.93-5.79,7.1-6.57,14.84-7.52,4.77-.59,9.69-1.09,13.38-.91,2.66.13,4.43.6,5.38,1.42.69-7.56-8.39-7.32-22.05-5.63-7.83.97-13.01,1.84-16.43,8.6-12.25,22.92-24.57,45.6-35.74,68.37-.93,1.95-2.98,5.47-4.87,7.22Z" />
    <path class="am"
          d="M691.84,130.64c.14.04.28.07.42.1-5.56-2.49-8.57-6.96-8.17-12.44,0-.08,0-.16,0-.25-.38-6.81,2.14-13.16,7.14-17.87,4.93-4.64,11.54-6.99,18.58-6.61,1.91.1,3.84.41,5.75.92,4.74,1.18,7.8,3.66,9.34,7.62-1.08-7-5.1-11.06-11.79-12.71-18.53-4.92-35.19,8.42-34.15,25.61-.56,7.8,4.77,13.43,12.88,15.63Z" />
    <path class="ax" d="M616.5,245.6c2.72,13.54,9.92,19.46,17.78,21.4-6.53-2.89-10.84-9.13-12.83-18.71-.14-.67-.62-1.22-1.26-1.47-.22-.08-3.46-1.22-3.69-1.22" />
    <path class="ay"
          d="M497.08,92.65c-9.68,8.05-8.68,30.83,7.79,33.86.16.04.32.06.48.09-5.34-2.25-7.49-6.98-8.33-9.9-2.08-7.2-.08-15.62,4.68-19.57.07-.06.14-.12.2-.19,4.83-5.23,12.03-8.23,19.73-8.23,1.69,0,3.4.15,5.06.44,4.69.83,7.88,3.17,9.64,7.07-1.49-6.97-5.82-10.88-12.44-12.04-9.75-1.71-20.14,1.23-26.8,8.46Z" />
    <path class="aj" d="M435.38,242.98c3.11,15.21,10.84,21.19,19.21,22.79-7.14-2.74-11.87-9.5-14.1-20.27-.15-.75-.73-1.34-1.48-1.54-.18-.05-3.45-.99-3.64-.99" />
    <path class="ak"
          d="M454.21,198.97c.04-.06.08-.12.12-.18,1.24-2.09,2.48-4.18,3.72-6.28.04-.06.07-.12.1-.19,2.96-6.47,5.96-12.94,8.99-19.42,3.6-7.7,7.23-15.41,10.85-23.15,2.63-5.96,6.7-7.43,14.27-8.29.27-.03.55-.06.82-.09,2.29-.27,5.43-.62,8.52-.64,5.44-.03,7.91,1.03,9.01,2.06.37-9.17-15.35-7.03-21.77-6.29-7.84.9-12.89,2.53-15.94,9.47-6.66,14.27-13.36,28.45-19.81,42.6-1.25,2.1-2.47,4.18-3.71,6.28-7.19,9.64-16.96,23.33-26.36,34.89-6.19,7.62-17.05,5.15-20.9-1.86.42,2.21,1.38,4.28,2.89,6.08,2.93,3.5,7.41,5.5,12.01,5.36,4.19-.13,8-2.05,10.74-5.41,7.72-9.48,15.74-20.47,22.25-29.29,1.47-2,2.88-3.89,4.19-5.66Z" />
    <path class="bp" d="M364.04,233.22c.72,19.23,12.09,33.57,26.77,36.36-3.63-1.23-7.01-3.26-10.01-6.05-7.08-6.6-10.83-15.89-11.51-26.88-.05-.86-1.4-2.29-2.24-2.55-.23-.07-2.78-.9-3.01-.89" />
    <path class="ao"
          d="M428.79,128.89c3.53-4.4,7.4-7.92,11.26-12.11,20.9-22.78,45.22-44.79,53.94-74.85,1.15-4.32,1.02-10.68-1.96-14.51-1.4-1.8-3.3-2.84-5.5-3.02-.04,0-.44-.01-.47-.01-.02,0-.04,0-.07,0-.08,0-.17,0-.26.01,3.5,2.51,4.16,9.29,2.91,14.04-9.63,33.35-34.59,59.53-56.26,86.02-1.35,1.38-2.27,2.86-3.6,4.43" />
    <path class="ba"
          d="M366.14,199.66c-6.06,8.42-13.63,19.48-21.2,29.64-6.61,8.87-18.89,6.31-23.23-1.5.51,2.28,1.58,4.41,3.17,6.26,3.22,3.75,8.3,5.91,13.27,5.64,4.63-.25,8.77-2.51,11.66-6.39,5.44-7.29,10.91-15.08,15.76-21.95,1.93-2.73,3.77-5.32,5.49-7.71,2.45-3.4,4.29-7.14,5.45-11.11.64-2.2,1.28-4.39,1.93-6.59,13.17-44.87,27.34-91.22,47.94-131.03,14.58-27.94,30.53-40.58,51.15-40.82,2.89-.03,5.93.19,9.03.66.06.01.12.02.19.03,7.6,1.59,13.44,5.33,16.82,10.75.58.93,1.08,1.9,1.51,2.91-2.32-9.4-9.67-16.19-21.2-18.59-.08-.01-.17-.03-.25-.04-27.21-4.09-46.38,10.37-62.49,41.33-21.64,41.94-36.14,90.96-49.84,137.99-1.1,3.76-2.84,7.31-5.14,10.52Z" />
    <path class="bl" d="M282.74,241.37c1.98,19.06,13.68,31.2,27.86,33.34-11.99-3.63-21.39-15.61-23.55-30.68-.19-1.34-1.23-1.99-2.09-2.19-.2-.05-2.02-.49-2.22-.47" />
    <path class="bh"
          d="M246.18,252.85c-5.7,2.54-28.51,7.31-37.24-1.03-.6-.5-1.12-1.1-1.55-1.77.64,2.42,1.74,4.47,3.5,5.96,5.58,5.29,15.46,5.63,22.79,5.01,6.9-.59,13.52-2.23,16.56-3.57,13.48-4.84,35.57-30.8,38.14-37.8,0-.03.08-.25.08-.25,0,0,1.96-7.05,1.98-7.1.05-.22.11-.43.16-.65,13.19-52.13,27.54-106.02,49.89-152.46,13.9-28.28,29.53-41.29,50.14-42.03,2.89-.1,5.93.05,9.04.44.06,0,.12.02.19.03,7.63,1.41,13.56,5,17.08,10.34.6.91,1.12,1.88,1.58,2.87-2.55-9.34-10.06-15.95-21.64-18.07-.08-.01-.17-.03-.25-.04-27.29-3.43-46.11,11.49-61.46,42.83-22.49,46.83-36.97,101.66-50.01,153.5,0,0,0,0,0-.01-.48,1.71-.95,3.43-1.43,5.14-.86,1.9-1.69,3.76-2.54,5.66-6.19,9.43-23.82,29.06-34.98,33Z" />
    <path class="bo"
          d="M215.39,211.99c.21-.02.43-.05.65-.11,12.67-3.05,25.5-13.38,31.25-25.21,3.59-7.39,3.96-14.57.99-20.22-.09-.18-.22-.34-.36-.49-.3-.3-.61-.6-.91-.9-.15-.15-.33-.28-.53-.38-1.47-.74-3.03-1.09-4.63-1.09.1.04.19.07.29.12.31.3.6.59.91.9,7.66,14.63-10.63,37.71-30.86,42.61-.48.12-.94.06-1.35-.11-.24,1.26.1,2.5.96,3.46.9,1,2.24,1.53,3.59,1.41Z" />
    <path class="ap"
          d="M183.3,271.93c-7.79-9.09-15.47-26.59-6.52-58.51,13.2-44.53,44.96-67.24,68.43-69.19,13.59-1.07,23.12,3.55,27.69,13.07-4.16-12.62-15.21-19.08-31.24-17.8-26.11,2.2-57.45,27.37-70.25,70.74-12.72,45.83,6.61,70.11,33.11,74.2-8.5-2.02-15.85-6.27-21.21-12.5Z" />
    <path class="bk"
          d="M336.45,150.74c14.76-17.2,42.33-49.81,54.71-69.55,6.69-10.75,14.12-23.32,16.62-36.76,1.01-4.21.73-10.56-2.34-14.33-1.44-1.77-3.37-2.76-5.57-2.88-.04,0-.29,0-.29,0-.04,0-.15,0-.21,0-.01,0-.02,0-.03,0-.08,0-.17.01-.26.02,3.56,2.43,4.38,9.18,3.24,13.97-2.43,13.11-9.74,25.5-16.32,36.1-11.3,18.09-31.8,49.94-45.99,68.82,0,0,0,0,0,.01-2.19,2.94-2.16,2.6-3.56,4.59" />
    <path class="be"
          d="M38.29,265.14s.05.06.07.09c7.01,8.58,19.17,12.58,32.61,10.77,9.62-1.3,18.77-5.41,25.14-11.32,18.32-15.95,24.18-39.01,29.95-61.34.51-1.96,1.01-3.91,1.53-5.84,1.71-7,4.6-20.95,8.38-38.61,8.79-41.67,23.23-104.58,30.9-119.14,1.38-2.74,3.32-5.69,6.12-9.28,3.05-3.9,3.37-8.87.83-12.97-2.29-3.68-6.33-5.87-10.8-5.94,6.03,2.19,9.15,9.35,4.67,15.09-2.46,3.16-4.7,6.38-6.32,9.59-11.15,20.72-33.74,133.97-39.25,158.15-6.17,23.37-11.33,49.24-30.85,66.25-14.1,13.07-41.94,16.46-54.79.8-.06-.09-.13-.18-.2-.27-.77-1.22-1.49-2.46-2.16-3.71,1.04,2.4,2.33,4.83,3.88,7.3.02.03.27.38.27.38Z" />
    <path class="an" d="M106.83,100.66c3.99,1.24,8.29,2.77,10.47,5.23-.82-5.36-6.93-7.76-13.3-9.73-6.85-2.14-11.28-5.77-13.87-10.23,2.56,7.02,8.31,12.1,16.7,14.74Z" />
    <path class="at"
          d="M6.03,285.55c-.02-.06-.05-.11-.07-.17-9.45-24.7-5.93-43.28,12.07-60.02,3.52-3.27,7.43-5.24,11.59-5.84,1.56-.23,3.18-.26,4.82-.11.44.04,1.05.13,1.61.31.33-2.45-.71-4.42-4.9-4.83-7.03-.65-13.08,1.88-18.07,6.52-20.48,19.09-21.23,39.48-12.47,62.27.04.08.07.16.11.25,10.33,20.8,26.38,30.62,44.29,32.66-16.89-3.08-30.36-13.63-38.97-31.04Z" />
    <path class="bi"
          d="M82.04,129.94c1.76.45,3.5.75,5.2.9-.36-.08-.72-.16-1.09-.26-25.78-6.87-37.61-20.56-39.17-46.23-1.77-51.38,58.1-91.18,114.56-96.6,4.9-.48,9.75-.7,14.42-.65,2.2,0,4.37,0,6.54.03,7.51.06,15.28.14,22.95-.52,6.91-.6,13.02-1.74,18.66-3.51.91-.28,1.75-.46,2.51-.52,1.51-.12,2.62.22,3.42.98-.53-4.15-3.65-7.1-10.16-5.08-15.61,4.9-31.63,3.89-47.44,3.94-58.91-.82-133.4,40.99-131.22,99.54,1.58,25.39,13.03,40.61,40.8,47.97Z" />
</svg>