<?xml version="1.0" encoding="UTF-8"?>
<svg id="a" xmlns="http://www.w3.org/2000/svg" viewBox="-15 -30 1075 360">
    <defs>
        <style>.aj {
          fill: url(#v);
        }

        .aj, .ak, .al, .am, .an, .ao, .ap, .aq, .ar, .as, .at, .au, .av, .aw, .ax, .ay, .az, .ba, .bb, .bc, .bd, .be, .bf, .bg, .bh, .bi, .bj, .bk, .bl, .bm, .bn, .bo, .bp, .bq {
          stroke-width: 0px;
        }

        .ak {
          fill: url(#w);
        }

        .al {
          fill: url(#c);
        }

        .am {
          fill: url(#s);
        }

        .an {
          fill: url(#ag);
        }

        .ao {
          fill: url(#y);
        }

        .ap {
          fill: url(#ad);
        }

        .aq {
          fill: url(#e);
        }

        .ar {
          fill: url(#g);
        }

        .as {
          fill: url(#i);
        }

        .at {
          fill: url(#ah);
        }

        .au {
          fill: url(#l);
        }

        .av {
          fill: url(#b);
        }

        .aw {
          fill: url(#q);
        }

        .ax {
          fill: url(#t);
        }

        .ay {
          fill: url(#u);
        }

        .az {
          fill: url(#n);
        }

        .ba {
          fill: url(#z);
        }

        .bb {
          fill: url(#h);
        }

        .bc {
          fill: url(#j);
        }

        .bd {
          fill: url(#d);
        }

        .be {
          fill: url(#af);
        }

        .bf {
          fill: url(#f);
        }

        .bg {
          fill: url(#m);
        }

        .bh {
          fill: url(#ab);
        }

        .bi {
          fill: url(#ai);
        }

        .bj {
          fill: url(#r);
        }

        .bk {
          fill: url(#ae);
        }

        .bl {
          fill: url(#aa);
        }

        .bm {
          fill: url(#k);
        }

        .bn {
          fill: url(#p);
        }

        .bo {
          fill: url(#ac);
        }

        .bp {
          fill: url(#x);
        }

        .bq {
          fill: url(#o);
        }</style>
        <linearGradient id="b" x1="5.53" y1="19.14" x2="981.53" y2="435.84" gradientUnits="userSpaceOnUse">
            <stop offset="0" stop-color="#fdb115" />
            <stop offset=".12" stop-color="#fdb215" />
            <stop offset=".16" stop-color="#fdb916" />
            <stop offset=".17" stop-color="#febd17" />
            <stop offset=".3" stop-color="#ff834f" />
            <stop offset=".32" stop-color="#fe8151" />
            <stop offset=".34" stop-color="#fd7d59" />
            <stop offset=".35" stop-color="#fb7568" />
            <stop offset=".36" stop-color="#f76a7c" />
            <stop offset=".37" stop-color="#f66488" />
            <stop offset=".4" stop-color="#f46489" />
            <stop offset=".42" stop-color="#ee6590" />
            <stop offset=".43" stop-color="#e4679d" />
            <stop offset=".43" stop-color="#d66aae" />
            <stop offset=".43" stop-color="#d56bb0" />
            <stop offset=".43" stop-color="#d16db1" />
            <stop offset=".44" stop-color="#b183bd" />
            <stop offset=".45" stop-color="#9795c6" />
            <stop offset=".46" stop-color="#81a4cf" />
            <stop offset=".47" stop-color="#70afd5" />
            <stop offset=".48" stop-color="#64b8d9" />
            <stop offset=".5" stop-color="#5dbcdc" />
            <stop offset=".54" stop-color="#5cbedd" />
            <stop offset=".56" stop-color="#5cbadb" />
            <stop offset=".58" stop-color="#5eaed8" />
            <stop offset=".59" stop-color="#619ad2" />
            <stop offset=".6" stop-color="#6587cc" />
            <stop offset=".62" stop-color="#7a78c5" />
            <stop offset=".64" stop-color="#9069bf" />
            <stop offset=".67" stop-color="#a15eba" />
            <stop offset=".7" stop-color="#ad56b6" />
            <stop offset=".74" stop-color="#b452b4" />
            <stop offset=".86" stop-color="#b651b4" />
            <stop offset="1" stop-color="#c43aa8" />
        </linearGradient>
        <radialGradient id="c" cx="512.34" cy="312.57" fx="400.05" fy="312.57" r="164.18" gradientTransform="translate(.08 772.95) rotate(-83.88) scale(1 1.47)" gradientUnits="userSpaceOnUse">
            <stop offset=".3" stop-color="#b064ff" />
            <stop offset=".35" stop-color="rgba(174,101,254,.98)" stop-opacity=".98" />
            <stop offset=".4" stop-color="rgba(170,106,252,.93)" stop-opacity=".93" />
            <stop offset=".45" stop-color="rgba(162,114,249,.84)" stop-opacity=".84" />
            <stop offset=".5" stop-color="rgba(152,125,245,.72)" stop-opacity=".72" />
            <stop offset=".55" stop-color="rgba(139,139,240,.56)" stop-opacity=".56" />
            <stop offset=".61" stop-color="rgba(123,156,233,.37)" stop-opacity=".37" />
            <stop offset=".66" stop-color="rgba(104,176,226,.15)" stop-opacity=".15" />
            <stop offset=".7" stop-color="#5cbedd" stop-opacity="0" />
        </radialGradient>
        <radialGradient id="d" cx="26.92" cy="103.13" fx="-166.24" fy="48.21" r="200.81" gradientTransform="translate(96.01 -12.28) rotate(42.45) scale(1 1.28)" gradientUnits="userSpaceOnUse">
            <stop offset=".22" stop-color="#74c651" />
            <stop offset=".46" stop-color="rgba(117,197,80,.99)" stop-opacity=".99" />
            <stop offset=".54" stop-color="rgba(122,197,78,.96)" stop-opacity=".96" />
            <stop offset=".6" stop-color="rgba(130,197,74,.9)" stop-opacity=".9" />
            <stop offset=".65" stop-color="rgba(142,196,70,.81)" stop-opacity=".81" />
            <stop offset=".7" stop-color="rgba(157,195,63,.7)" stop-opacity=".7" />
            <stop offset=".73" stop-color="rgba(176,194,55,.56)" stop-opacity=".56" />
            <stop offset=".77" stop-color="rgba(198,192,46,.4)" stop-opacity=".4" />
            <stop offset=".8" stop-color="rgba(224,190,35,.22)" stop-opacity=".22" />
            <stop offset=".82" stop-color="rgba(252,189,23,0)" stop-opacity="0" />
            <stop offset=".83" stop-color="#febd17" stop-opacity="0" />
        </radialGradient>
        <linearGradient id="e" x1="190.6" y1="-98.95" x2="799.9" y2="510.34" gradientUnits="userSpaceOnUse">
            <stop offset="0" stop-color="#a36b15" />
            <stop offset=".08" stop-color="#a46b15" />
            <stop offset=".12" stop-color="#ab6b18" />
            <stop offset=".14" stop-color="#b76b1d" />
            <stop offset=".16" stop-color="#c86c23" />
            <stop offset=".17" stop-color="#de6c2c" />
            <stop offset=".17" stop-color="#e36d2e" />
            <stop offset=".3" stop-color="#e7432b" />
            <stop offset=".32" stop-color="#e4422b" />
            <stop offset=".34" stop-color="#dc422d" />
            <stop offset=".35" stop-color="#cd4131" />
            <stop offset=".36" stop-color="#b94037" />
            <stop offset=".37" stop-color="#ac403b" />
            <stop offset=".4" stop-color="#ac413c" />
            <stop offset=".42" stop-color="#ae4841" />
            <stop offset=".43" stop-color="#b25549" />
            <stop offset=".43" stop-color="#b86554" />
            <stop offset=".44" stop-color="#aa6464" />
            <stop offset=".45" stop-color="#98637a" />
            <stop offset=".45" stop-color="#8a638b" />
            <stop offset=".46" stop-color="#816397" />
            <stop offset=".48" stop-color="#7b639e" />
            <stop offset=".52" stop-color="#7a63a0" />
            <stop offset=".53" stop-color="#76639f" />
            <stop offset=".55" stop-color="#6a649e" />
            <stop offset=".56" stop-color="#56679d" />
            <stop offset=".57" stop-color="#3b6a9a" />
            <stop offset=".58" stop-color="#316c9a" />
            <stop offset=".58" stop-color="#3e6698" />
            <stop offset=".6" stop-color="#585c94" />
            <stop offset=".63" stop-color="#6e5391" />
            <stop offset=".65" stop-color="#7f4d8f" />
            <stop offset=".69" stop-color="#8b488e" />
            <stop offset=".73" stop-color="#92458d" />
            <stop offset=".86" stop-color="#94458d" />
            <stop offset="1" stop-color="#ae1881" />
        </linearGradient>
        <linearGradient id="f" x1="930.75" y1="289.74" x2="1008.05" y2="171.25" gradientUnits="userSpaceOnUse">
            <stop offset="0" stop-color="#e082dc" />
            <stop offset=".63" stop-color="#df83db" />
            <stop offset=".86" stop-color="#de8adb" />
            <stop offset="1" stop-color="#dc94db" />
        </linearGradient>
        <linearGradient id="g" x1="990.35" y1="227.19" x2="948.91" y2="301.74" gradientUnits="userSpaceOnUse">
            <stop offset="0" stop-color="#dc91d3" />
            <stop offset=".37" stop-color="#dd92d4" />
            <stop offset=".51" stop-color="#e198db" />
            <stop offset=".61" stop-color="#e8a3e7" />
            <stop offset=".61" stop-color="#eaa5e9" />
            <stop offset=".7" stop-color="#e79ce5" />
            <stop offset=".72" stop-color="#e79ae5" />
            <stop offset=".76" stop-color="#df8cda" />
            <stop offset=".84" stop-color="#d479cc" />
            <stop offset=".92" stop-color="#ce6dc3" />
            <stop offset="1" stop-color="#cc6ac1" />
        </linearGradient>
        <linearGradient id="h" x1="861.47" y1="273.39" x2="913.45" y2="165.57" gradientUnits="userSpaceOnUse">
            <stop offset="0" stop-color="#eca0f6" />
            <stop offset=".8" stop-color="#ec9df6" />
            <stop offset="1" stop-color="#ed9bf6" />
        </linearGradient>
        <linearGradient id="i" x1="855.26" y1="158.3" x2="819.31" y2="222.43" gradientUnits="userSpaceOnUse">
            <stop offset="0" stop-color="#edb1f6" />
            <stop offset=".17" stop-color="#ecaef3" />
            <stop offset=".27" stop-color="#eba7eb" />
            <stop offset=".31" stop-color="#eaa2e5" />
            <stop offset=".82" stop-color="#eaa2e5" />
            <stop offset="1" stop-color="#ecb1f6" />
        </linearGradient>
        <linearGradient id="j" x1="814.7" y1="228.74" x2="793.53" y2="283.77" gradientUnits="userSpaceOnUse">
            <stop offset="0" stop-color="#ecaaee" />
            <stop offset=".07" stop-color="#e9a4ec" />
            <stop offset=".68" stop-color="#d780de" />
            <stop offset="1" stop-color="#d172d9" />
        </linearGradient>
        <linearGradient id="k" x1="863.18" y1="276.93" x2="870.93" y2="292.9" gradientUnits="userSpaceOnUse">
            <stop offset="0" stop-color="#ebaed5" />
            <stop offset=".22" stop-color="#e49fd0" />
            <stop offset=".72" stop-color="#d681c6" />
            <stop offset="1" stop-color="#d177c3" />
        </linearGradient>
        <linearGradient id="l" x1="772.37" y1="175.36" x2="735.13" y2="258.11" gradientUnits="userSpaceOnUse">
            <stop offset="0" stop-color="#edb1f6" />
            <stop offset=".01" stop-color="#e7a1ef" />
            <stop offset=".05" stop-color="#dc81e0" />
            <stop offset=".08" stop-color="#d56ed8" />
            <stop offset=".1" stop-color="#d367d5" />
            <stop offset=".1" stop-color="#d46bd6" />
            <stop offset=".13" stop-color="#dd88e1" />
            <stop offset=".15" stop-color="#e49de9" />
            <stop offset=".17" stop-color="#e8a9ee" />
            <stop offset=".19" stop-color="#eaaef0" />
            <stop offset=".47" stop-color="#c748d2" />
            <stop offset=".64" stop-color="#e283df" />
            <stop offset="1" stop-color="#da99ce" />
        </linearGradient>
        <linearGradient id="m" x1="670.74" y1="266.01" x2="772.99" y2="165.81" gradientUnits="userSpaceOnUse">
            <stop offset="0" stop-color="#c5a1ff" />
            <stop offset=".3" stop-color="#d6a7fb" />
            <stop offset=".7" stop-color="#e7aef7" />
            <stop offset="1" stop-color="#edb1f6" />
        </linearGradient>
        <linearGradient id="n" x1="690.1" y1="252.36" x2="703.86" y2="279.32" gradientUnits="userSpaceOnUse">
            <stop offset="0" stop-color="#dca2cc" />
            <stop offset=".28" stop-color="#d890d0" />
            <stop offset=".82" stop-color="#cd64dc" />
            <stop offset="1" stop-color="#ca55e1" />
        </linearGradient>
        <linearGradient id="o" x1="492.14" y1="269.2" x2="614.62" y2="125.46" gradientUnits="userSpaceOnUse">
            <stop offset="0" stop-color="#acd1eb" />
            <stop offset="1" stop-color="#b9ffff" />
        </linearGradient>
        <linearGradient id="p" x1="595.3" y1="171.03" x2="582.42" y2="198.23" gradientUnits="userSpaceOnUse">
            <stop offset="0" stop-color="#b7f7fb" />
            <stop offset="1" stop-color="#add3ec" />
        </linearGradient>
        <linearGradient id="q" x1="515.3" y1="242.72" x2="533.83" y2="275.74" gradientUnits="userSpaceOnUse">
            <stop offset="0" stop-color="#a0cce7" />
            <stop offset="1" stop-color="#aaa7f0" />
        </linearGradient>
        <linearGradient id="r" x1="550.66" y1="239.27" x2="693.08" y2="170.04" gradientUnits="userSpaceOnUse">
            <stop offset="0" stop-color="#add4ec" />
            <stop offset="1" stop-color="#d4c6fb" />
        </linearGradient>
        <linearGradient id="s" x1="707.21" y1="92.83" x2="690.76" y2="136.56" gradientUnits="userSpaceOnUse">
            <stop offset="0" stop-color="#c2e3fb" />
            <stop offset=".25" stop-color="#c1dafb" />
            <stop offset=".65" stop-color="#c0c3fd" />
            <stop offset="1" stop-color="#c0aaff" />
        </linearGradient>
        <linearGradient id="t" x1="620.95" y1="252.89" x2="629.23" y2="276.74" gradientUnits="userSpaceOnUse">
            <stop offset="0" stop-color="#ad9ddf" />
            <stop offset=".96" stop-color="#8e9fd7" />
            <stop offset="1" stop-color="#8da0d7" />
        </linearGradient>
        <linearGradient id="u" x1="524.36" y1="89.47" x2="497.91" y2="132.56" gradientUnits="userSpaceOnUse">
            <stop offset="0" stop-color="#b9ffff" />
            <stop offset=".2" stop-color="#b5fdfe" />
            <stop offset=".38" stop-color="#aaf9fb" />
            <stop offset=".55" stop-color="#98f2f7" />
            <stop offset=".71" stop-color="#7fe8f1" />
            <stop offset=".87" stop-color="#5edce9" />
            <stop offset="1" stop-color="#3dcfe1" />
        </linearGradient>
        <linearGradient id="v" x1="437.1" y1="249.86" x2="451.05" y2="275.08" gradientUnits="userSpaceOnUse">
            <stop offset="0" stop-color="#82d0ec" />
            <stop offset=".25" stop-color="#8ecaec" />
            <stop offset=".69" stop-color="#afbaef" />
            <stop offset="1" stop-color="#c9aef1" />
        </linearGradient>
        <linearGradient id="w" x1="496.77" y1="137.84" x2="416.93" y2="248.37" gradientUnits="userSpaceOnUse">
            <stop offset="0" stop-color="#b9ffff" />
            <stop offset=".3" stop-color="#bafcfd" />
            <stop offset=".51" stop-color="#c1f2f7" />
            <stop offset=".71" stop-color="#cce2ed" />
            <stop offset=".88" stop-color="#dbcce0" />
            <stop offset="1" stop-color="#e8b9d5" />
        </linearGradient>
        <linearGradient id="x" x1="363.82" y1="237.61" x2="386.52" y2="280.29" gradientUnits="userSpaceOnUse">
            <stop offset="0" stop-color="#ffaba0" />
            <stop offset=".24" stop-color="#fda1b2" />
            <stop offset=".73" stop-color="#f88ae2" />
            <stop offset="1" stop-color="#f67cff" />
        </linearGradient>
        <linearGradient id="y" x1="495.32" y1="34.52" x2="438.8" y2="137.5" gradientUnits="userSpaceOnUse">
            <stop offset="0" stop-color="#ff9bcd" />
            <stop offset="1" stop-color="#ffadc5" />
        </linearGradient>
        <linearGradient id="z" x1="494.14" y1="2.43" x2="321.13" y2="257.03" gradientUnits="userSpaceOnUse">
            <stop offset="0" stop-color="#ffdfd6" />
            <stop offset=".31" stop-color="#fdcfc8" />
            <stop offset="1" stop-color="#faafac" />
        </linearGradient>
        <linearGradient id="aa" x1="296.97" y1="250.32" x2="298.14" y2="288.6" gradientUnits="userSpaceOnUse">
            <stop offset="0" stop-color="#fdb115" />
            <stop offset=".1" stop-color="#fdb528" />
            <stop offset=".4" stop-color="#fdc25f" />
            <stop offset=".67" stop-color="#fdcc88" />
            <stop offset=".87" stop-color="#fdd1a0" />
            <stop offset="1" stop-color="#fed4aa" />
        </linearGradient>
        <linearGradient id="ab" x1="241.84" y1="211.61" x2="384.77" y2="73.39" gradientUnits="userSpaceOnUse">
            <stop offset="0" stop-color="#ffcf8f" />
            <stop offset=".92" stop-color="#ffe8cf" />
            <stop offset="1" stop-color="#ffebd5" />
        </linearGradient>
        <linearGradient id="ac" x1="232.72" y1="183.82" x2="232.41" y2="218.47" gradientUnits="userSpaceOnUse">
            <stop offset="0" stop-color="#fdb115" />
            <stop offset=".33" stop-color="#fdc354" />
            <stop offset=".64" stop-color="#fed48a" />
            <stop offset=".87" stop-color="#fedeab" />
            <stop offset="1" stop-color="#ffe2b8" />
        </linearGradient>
        <linearGradient id="ad" x1="163.01" y1="279.2" x2="274.81" y2="137.01" gradientUnits="userSpaceOnUse">
            <stop offset="0" stop-color="#ffbb48" />
            <stop offset=".29" stop-color="#ffc965" />
            <stop offset="1" stop-color="#ffeca9" />
        </linearGradient>
        <linearGradient id="ae" x1="342.73" y1="149.24" x2="412.56" y2="36.7" gradientUnits="userSpaceOnUse">
            <stop offset="0" stop-color="#ffcb97" />
            <stop offset=".46" stop-color="#ffcaa1" />
            <stop offset="1" stop-color="#ffcaa8" />
        </linearGradient>
        <linearGradient id="af" x1="162.32" y1="19.12" x2="68.89" y2="271.41" gradientUnits="userSpaceOnUse">
            <stop offset="0" stop-color="#fdeca9" />
            <stop offset="1" stop-color="#ffeaaf" />
        </linearGradient>
        <linearGradient id="ag" x1="92.39" y1="91.84" x2="124.76" y2="105.66" gradientUnits="userSpaceOnUse">
            <stop offset="0" stop-color="#beff7d" />
            <stop offset=".48" stop-color="#bcfd7b" />
            <stop offset=".67" stop-color="#b5f676" />
            <stop offset=".79" stop-color="#a9eb6d" />
            <stop offset=".9" stop-color="#98dc60" />
            <stop offset=".99" stop-color="#82c84f" />
            <stop offset="1" stop-color="#7fc54d" />
        </linearGradient>
        <linearGradient id="ah" x1="9.34" y1="237.21" x2="52.55" y2="295.96" gradientUnits="userSpaceOnUse">
            <stop offset="0" stop-color="#fff299" />
            <stop offset="1" stop-color="#ffd67c" />
        </linearGradient>
        <linearGradient id="ai" x1="64.92" y1="92.32" x2="194.64" y2="-1.56" gradientUnits="userSpaceOnUse">
            <stop offset="0" stop-color="#b5ff79" />
            <stop offset=".35" stop-color="#cbf78f" />
            <stop offset="1" stop-color="#fee5c3" />
        </linearGradient>
    </defs>
    <path class="av"
          d="M210.67,23.09c-25.32,67.72-33.47,140.01-51.96,209.33-.01.06-.02.11-.04.17-11.33,66.78-122.49,125.85-156.5,51.39-.03-.08-.07-.17-.1-.25-8.02-23.06-6.64-43.4,14.21-61.84,5.08-4.49,11.14-6.83,18.1-5.98,9.09,1.17,2.98,9.37.42,13.88-.02.04-.04.07-.06.11-5.11,11.61-2.42,22.45,3.46,32.42.06.09.13.19.19.28,12.33,16.04,40.15,13.41,54.49.71,19.83-16.5,25.54-42.25,32.18-65.46,6.06-24.03,30.66-136.73,41.93-157.21,1.64-3.18,3.9-6.35,6.38-9.45,6.01-7.52-1.24-17.86-11.01-15.62-.07.02-.13.03-.2.05-21,5.14-40.54,13.18-55.22,29.35-13.76,15.7-23.31,45.43,2.37,54.25,8.23,2.81,16.02,6.35,11.79,16.18-5.28,14.22-19.08,21.37-34.22,17.02-27.25-8.09-38.15-23.65-39.07-49.06C47.21,24.8,121.14-14.89,178.84-12.92c15.5.27,31.21,1.58,46.59-3.04,10.41-3.1,11.87,6.7,7.99,13.48-.02.04-.04.08-.06.12-.69,1.79-3.19,3.32-5.43,4.46-.05.02-.1.04-.14.07-9.55,4.09-13.8,12.11-17.12,20.92ZM497.34,100.82c-9.57,8.04-8.63,30.82,7.67,33.87,14.36,3.24,32.02-10.78,31.67-25.18-.27-10.2-4.87-15.72-12.87-17.14-9.63-1.71-19.88,1.23-26.47,8.45ZM1018.72,221.5s0,.08.01.12c3.71,29.65,10.2,64.04-22.64,80.04-20.12,11.03-48.53,6.33-60.37-14.07-2.3-4.45,3.88-12.36,7.01-15.96,3.03-3.75,8.21-4.45,10.23-.89,2.72,4.77,5.27,9.81,9.76,11.11,8.47,2.46,18.2-2.43,23.51-17.28,4.05-11.33,3.62-21.51.03-33.46,0,0,0,0,0,0-1.06-4.35-4.31-5.91-6.84-2.57-26.57,26.23-50.78,64.72-91.79,65.64-19.97.82-19.03-3.45-27.06-17.4-.6-1.05-1.94-1.45-3.03-.9-6.56,3.3-12.64,6.61-18.67,9.44-22.62,11.51-62.96-2.16-47.64-32.26,4.43-9.57,7.96-16.48,12.97-25.73-5.65,2.09-10.12.56-15.74.53-12.74,30.15-38.72,54.66-69.76,53.17-17.39-.84-29.46-12.04-32.54-29.04-18.05,20.14-61.74,40.22-70.05,1.52-32.97,24.22-88.21,34.55-107.1-8.15-17.11,23.18-64.57,48.8-73.32,5.61-8.49,9.7-16.14,19.57-28.09,25.04-.11.04-.22.09-.33.13-24.35,7.8-42.19-12.3-42.53-35.44-11.07,14.86-21.3,30.76-37.67,39.23-.12.05-.23.1-.35.15-22.91,7.96-41.34-9.95-42.98-32.18,0,0,0,0,0,0-41.76,65.76-135.96,55.8-110.14-33.1,13.57-43.09,44.98-67.63,70.84-69.41,18.84-1.2,30.57,8.33,32.16,25.98,2.57,34.26-33,57.76-66.15,60.49-.73.62-1.23,1.06-1.96,1.68-2.12,10.2-2.99,19.57,1.65,23.59,8.54,8.5,31.34,4.13,37.05,1.68,11.47-3.85,29.95-24.12,35.75-33.16.68-1.51,1.34-2.99,2.02-4.5.54-1.85,1.07-3.7,1.61-5.55,0,0,0,0,0,.01,13.64-51.65,28.61-106.29,51.22-152.86,15.43-31.17,34.02-45.9,60.83-42.27.08.01.17.03.25.04,18.19,3.54,26.05,18.41,20.21,37.54-12,33.95-30.27,53.88-53.51,84.05-7.08,8.68-17.7,25.06-28.17,36.72-2.55,2.83-4.34,6.22-5.35,9.84-3.39,12.18-7.36,24.75-10.39,36.73-3.57,14.21,15.24,22.93,24.12,11.18,7.63-10.08,15.26-21.08,21.36-29.44,2.32-3.18,4.07-6.7,5.19-10.45,13.99-46.91,28.67-95.81,50.21-137.63,16.03-30.86,34.91-45.23,61.65-41.08.08.02.17.03.25.05,18.12,3.89,25.69,18.91,19.48,37.93-14.51,39.39-53.94,83.26-85.6,116-.22.23-.37.49-.45.79-4.62,17.28-11.76,36.73-16.14,54.49-3.09,12.64,13.46,20.56,21.74,10.44,9.42-11.51,19.2-25.16,26.38-34.78,1.24-2.09,2.46-4.15,3.7-6.24,6.46-14.13,13.14-28.29,19.78-42.54,3.04-6.93,8.04-8.56,15.8-9.44,7.01-.81,25.22-3.3,20.91,9.51,0,0,0,.01,0,.02-2.18,4.99-32.58,69.42-35.28,76.39,0,0,0,.01-.01.02-2.1,4.22-5.99,9.66-1.68,13.81,5.53,4.74,10.34-.7,14.6-3.13,5.11-3.01,9.33-6.89,13.56-10.77.07-.07.13-.14.2-.21,3.14-3.71,5.55-10.11,6.48-12.93,0-.03.01-.05.02-.08,6.72-32.45,29.65-53.84,51.92-64.13,42.48-19.73,83.98-3.66,57,38.74-9.92,17.8-42.68,14.54-34.83-2.16,2.2-4.41,5.01-8.52,7.24-12.93.04-.1.09-.21.13-.31,1.25-3.54,1.56-7.35-2.69-9.5-3.69-2.16-8.06-1.03-14.95,4.89-18.01,16.68-45.41,68.89-2.46,75.28,18.23,2.32,35.96-3.63,48.47-15.34,1.87-1.76,3.89-5.29,4.8-7.25,10.97-22.84,23.04-45.6,35-68.63,3.33-6.79,8.46-7.71,16.2-8.75,19.31-2.58,29.34-2.23,15.47,20.03-.02.04-.06.1-.08.14-11.32,21.64-22.47,43.33-33.47,65.06-2.28,4.13-6.41,9.4-2.28,13.73,5.32,4.97,10.37-.26,14.72-2.5,5.26-2.8,9.65-6.51,14.05-10.22.05-.04.1-.09.15-.13,6.08-5.87,9.09-19.08,13.61-26.91.03-.06.06-.12.09-.18,20.62-54.89,115.82-66.16,97.05,7.78,4.82,1.4,10.36,1.44,16.56-.22,1.53-.41,2.8-1.44,3.54-2.8,7.1-13.06,15.74-25.07,23.77-37.75,3.59-6.35,8.84-9.57,16.63-9.26,5.59.44,10.99-.63,16.56.13,8.99,1.04,11.13,5.15,6.43,12.88-15.73,24.51-31.58,48.7-44.25,74.73-2.92,6.4-.69,9.27,6.68,8.63,10.16-1.03,18.46-5.47,23.49-14.39,8.24-16.13,30.76-52.16,40.85-68.14,7.58-12.25,23.48-9.31,35.97-8.05.09.01.18.03.27.05,10.72,2.56,2.6,13.71-1.07,19.13-.02.03-.03.05-.05.08-4.45,7.71-38.45,61.32-40.76,68.12-6.24,17.63,25.98,8.42,32,1.32.06-.06.12-.11.18-.17,17.49-13.63,51.78-63.54,69.47-77.03,9.22-7.87,41.08-8.22,49.46.53,5.73,8.25-31.99,11.71-30.08,39.72ZM489.09,46.6c1.51-5.78.25-14.58-5.47-15.03-.08,0-.16,0-.25,0-3.24.12-11.43,4.41-28.62,41.62-9.27,20.23-18.3,44.31-25.04,63.65,22.34-27.89,49.31-55.05,59.37-90.24ZM387.75,84.97c6.57-10.55,13.86-22.89,16.33-35.98,1.4-5.81-.04-14.58-5.76-14.92-.08,0-.16,0-.24,0-3.24.18-11.34,4.64-27.8,42.17-8.93,20.39-25.88,62.21-32.13,81.69,14.21-17.68,37.36-53.4,49.61-72.96ZM214.16,212.59c20.18-4.52,38.67-27.31,31.3-42.06-.3-.31-.59-.61-.89-.92-10.32-5.41-23.57,13.04-32.92,40.1-.03.09-.06.18-.08.26,0,0,0,0,0,0-.41,1.55,1.01,2.97,2.6,2.61ZM771.02,187.19c-.55-6.28-3.06-9.89-7.55-10.15-29.99-3.26-62.09,76.8-34.15,79.87,11.57.58,26.32-14.39,34.47-34.84-.21-.86-.36-1.5-.57-2.35-6.21-5.55-8.39-13.82-5.97-20.51,1.66-4.56,5.6-8.25,11.97-9.67,1.07-.24,1.9-1.3,1.81-2.36ZM690.04,137.93c14.21,3.86,32.65-9.39,32.73-23.8.17-10.2-4.02-15.74-12.12-17.67-18.34-4.71-34.66,8.79-33.49,25.97-.49,7.8,4.83,13.38,12.88,15.51Z" />
    <path class="al"
          d="M210.67,23.09c-25.32,67.72-33.47,140.01-51.96,209.33-.01.06-.02.11-.04.17-11.33,66.78-122.49,125.85-156.5,51.39-.03-.08-.07-.17-.1-.25-8.02-23.06-6.64-43.4,14.21-61.84,5.08-4.49,11.14-6.83,18.1-5.98,9.09,1.17,2.98,9.37.42,13.88-.02.04-.04.07-.06.11-5.11,11.61-2.42,22.45,3.46,32.42.06.09.13.19.19.28,12.33,16.04,40.15,13.41,54.49.71,19.83-16.5,25.54-42.25,32.18-65.46,6.06-24.03,30.66-136.73,41.93-157.21,1.64-3.18,3.9-6.35,6.38-9.45,6.01-7.52-1.24-17.86-11.01-15.62-.07.02-.13.03-.2.05-21,5.14-40.54,13.18-55.22,29.35-13.76,15.7-23.31,45.43,2.37,54.25,8.23,2.81,16.02,6.35,11.79,16.18-5.28,14.22-19.08,21.37-34.22,17.02-27.25-8.09-38.15-23.65-39.07-49.06C47.21,24.8,121.14-14.89,178.84-12.92c15.5.27,31.21,1.58,46.59-3.04,10.41-3.1,11.87,6.7,7.99,13.48-.02.04-.04.08-.06.12-.69,1.79-3.19,3.32-5.43,4.46-.05.02-.1.04-.14.07-9.55,4.09-13.8,12.11-17.12,20.92ZM497.34,100.82c-9.57,8.04-8.63,30.82,7.67,33.87,14.36,3.24,32.02-10.78,31.67-25.18-.27-10.2-4.87-15.72-12.87-17.14-9.63-1.71-19.88,1.23-26.47,8.45ZM1018.72,221.5s0,.08.01.12c3.71,29.65,10.2,64.04-22.64,80.04-20.12,11.03-48.53,6.33-60.37-14.07-2.3-4.45,3.88-12.36,7.01-15.96,3.03-3.75,8.21-4.45,10.23-.89,2.72,4.77,5.27,9.81,9.76,11.11,8.47,2.46,18.2-2.43,23.51-17.28,4.05-11.33,3.62-21.51.03-33.46,0,0,0,0,0,0-1.06-4.35-4.31-5.91-6.84-2.57-26.57,26.23-50.78,64.72-91.79,65.64-19.97.82-19.03-3.45-27.06-17.4-.6-1.05-1.94-1.45-3.03-.9-6.56,3.3-12.64,6.61-18.67,9.44-22.62,11.51-62.96-2.16-47.64-32.26,4.43-9.57,7.96-16.48,12.97-25.73-5.65,2.09-10.12.56-15.74.53-12.74,30.15-38.72,54.66-69.76,53.17-17.39-.84-29.46-12.04-32.54-29.04-18.05,20.14-61.74,40.22-70.05,1.52-32.97,24.22-88.21,34.55-107.1-8.15-17.11,23.18-64.57,48.8-73.32,5.61-8.49,9.7-16.14,19.57-28.09,25.04-.11.04-.22.09-.33.13-24.35,7.8-42.19-12.3-42.53-35.44-11.07,14.86-21.3,30.76-37.67,39.23-.12.05-.23.1-.35.15-22.91,7.96-41.34-9.95-42.98-32.18,0,0,0,0,0,0-41.76,65.76-135.96,55.8-110.14-33.1,13.57-43.09,44.98-67.63,70.84-69.41,18.84-1.2,30.57,8.33,32.16,25.98,2.57,34.26-33,57.76-66.15,60.49-.73.62-1.23,1.06-1.96,1.68-2.12,10.2-2.99,19.57,1.65,23.59,8.54,8.5,31.34,4.13,37.05,1.68,11.47-3.85,29.95-24.12,35.75-33.16.68-1.51,1.34-2.99,2.02-4.5.54-1.85,1.07-3.7,1.61-5.55,0,0,0,0,0,.01,13.64-51.65,28.61-106.29,51.22-152.86,15.43-31.17,34.02-45.9,60.83-42.27.08.01.17.03.25.04,18.19,3.54,26.05,18.41,20.21,37.54-12,33.95-30.27,53.88-53.51,84.05-7.08,8.68-17.7,25.06-28.17,36.72-2.55,2.83-4.34,6.22-5.35,9.84-3.39,12.18-7.36,24.75-10.39,36.73-3.57,14.21,15.24,22.93,24.12,11.18,7.63-10.08,15.26-21.08,21.36-29.44,2.32-3.18,4.07-6.7,5.19-10.45,13.99-46.91,28.67-95.81,50.21-137.63,16.03-30.86,34.91-45.23,61.65-41.08.08.02.17.03.25.05,18.12,3.89,25.69,18.91,19.48,37.93-14.51,39.39-53.94,83.26-85.6,116-.22.23-.37.49-.45.79-4.62,17.28-11.76,36.73-16.14,54.49-3.09,12.64,13.46,20.56,21.74,10.44,9.42-11.51,19.2-25.16,26.38-34.78,1.24-2.09,2.46-4.15,3.7-6.24,6.46-14.13,13.14-28.29,19.78-42.54,3.04-6.93,8.04-8.56,15.8-9.44,7.01-.81,25.22-3.3,20.91,9.51,0,0,0,.01,0,.02-2.18,4.99-32.58,69.42-35.28,76.39,0,0,0,.01-.01.02-2.1,4.22-5.99,9.66-1.68,13.81,5.53,4.74,10.34-.7,14.6-3.13,5.11-3.01,9.33-6.89,13.56-10.77.07-.07.13-.14.2-.21,3.14-3.71,5.55-10.11,6.48-12.93,0-.03.01-.05.02-.08,6.72-32.45,29.65-53.84,51.92-64.13,42.48-19.73,83.98-3.66,57,38.74-9.92,17.8-42.68,14.54-34.83-2.16,2.2-4.41,5.01-8.52,7.24-12.93.04-.1.09-.21.13-.31,1.25-3.54,1.56-7.35-2.69-9.5-3.69-2.16-8.06-1.03-14.95,4.89-18.01,16.68-45.41,68.89-2.46,75.28,18.23,2.32,35.96-3.63,48.47-15.34,1.87-1.76,3.89-5.29,4.8-7.25,10.97-22.84,23.04-45.6,35-68.63,3.33-6.79,8.46-7.71,16.2-8.75,19.31-2.58,29.34-2.23,15.47,20.03-.02.04-.06.1-.08.14-11.32,21.64-22.47,43.33-33.47,65.06-2.28,4.13-6.41,9.4-2.28,13.73,5.32,4.97,10.37-.26,14.72-2.5,5.26-2.8,9.65-6.51,14.05-10.22.05-.04.1-.09.15-.13,6.08-5.87,9.09-19.08,13.61-26.91.03-.06.06-.12.09-.18,20.62-54.89,115.82-66.16,97.05,7.78,4.82,1.4,10.36,1.44,16.56-.22,1.53-.41,2.8-1.44,3.54-2.8,7.1-13.06,15.74-25.07,23.77-37.75,3.59-6.35,8.84-9.57,16.63-9.26,5.59.44,10.99-.63,16.56.13,8.99,1.04,11.13,5.15,6.43,12.88-15.73,24.51-31.58,48.7-44.25,74.73-2.92,6.4-.69,9.27,6.68,8.63,10.16-1.03,18.46-5.47,23.49-14.39,8.24-16.13,30.76-52.16,40.85-68.14,7.58-12.25,23.48-9.31,35.97-8.05.09.01.18.03.27.05,10.72,2.56,2.6,13.71-1.07,19.13-.02.03-.03.05-.05.08-4.45,7.71-38.45,61.32-40.76,68.12-6.24,17.63,25.98,8.42,32,1.32.06-.06.12-.11.18-.17,17.49-13.63,51.78-63.54,69.47-77.03,9.22-7.87,41.08-8.22,49.46.53,5.73,8.25-31.99,11.71-30.08,39.72ZM489.09,46.6c1.51-5.78.25-14.58-5.47-15.03-.08,0-.16,0-.25,0-3.24.12-11.43,4.41-28.62,41.62-9.27,20.23-18.3,44.31-25.04,63.65,22.34-27.89,49.31-55.05,59.37-90.24ZM387.75,84.97c6.57-10.55,13.86-22.89,16.33-35.98,1.4-5.81-.04-14.58-5.76-14.92-.08,0-.16,0-.24,0-3.24.18-11.34,4.64-27.8,42.17-8.93,20.39-25.88,62.21-32.13,81.69,14.21-17.68,37.36-53.4,49.61-72.96ZM214.16,212.59c20.18-4.52,38.67-27.31,31.3-42.06-.3-.31-.59-.61-.89-.92-10.32-5.41-23.57,13.04-32.92,40.1-.03.09-.06.18-.08.26,0,0,0,0,0,0-.41,1.55,1.01,2.97,2.6,2.61ZM771.02,187.19c-.55-6.28-3.06-9.89-7.55-10.15-29.99-3.26-62.09,76.8-34.15,79.87,11.57.58,26.32-14.39,34.47-34.84-.21-.86-.36-1.5-.57-2.35-6.21-5.55-8.39-13.82-5.97-20.51,1.66-4.56,5.6-8.25,11.97-9.67,1.07-.24,1.9-1.3,1.81-2.36ZM690.04,137.93c14.21,3.86,32.65-9.39,32.73-23.8.17-10.2-4.02-15.74-12.12-17.67-18.34-4.71-34.66,8.79-33.49,25.97-.49,7.8,4.83,13.38,12.88,15.51Z" />
    <path class="bd"
          d="M210.67,23.09c-25.32,67.72-33.47,140.01-51.96,209.33-.01.06-.02.11-.04.17-11.33,66.78-122.49,125.85-156.5,51.39-.03-.08-.07-.17-.1-.25-8.02-23.06-6.64-43.4,14.21-61.84,5.08-4.49,11.14-6.83,18.1-5.98,9.09,1.17,2.98,9.37.42,13.88-.02.04-.04.07-.06.11-5.11,11.61-2.42,22.45,3.46,32.42.06.09.13.19.19.28,12.33,16.04,40.15,13.41,54.49.71,19.83-16.5,25.54-42.25,32.18-65.46,6.06-24.03,30.66-136.73,41.93-157.21,1.64-3.18,3.9-6.35,6.38-9.45,6.01-7.52-1.24-17.86-11.01-15.62-.07.02-.13.03-.2.05-21,5.14-40.54,13.18-55.22,29.35-13.76,15.7-23.31,45.43,2.37,54.25,8.23,2.81,16.02,6.35,11.79,16.18-5.28,14.22-19.08,21.37-34.22,17.02-27.25-8.09-38.15-23.65-39.07-49.06C47.21,24.8,121.14-14.89,178.84-12.92c15.5.27,31.21,1.58,46.59-3.04,10.41-3.1,11.87,6.7,7.99,13.48-.02.04-.04.08-.06.12-.69,1.79-3.19,3.32-5.43,4.46-.05.02-.1.04-.14.07-9.55,4.09-13.8,12.11-17.12,20.92ZM497.34,100.82c-9.57,8.04-8.63,30.82,7.67,33.87,14.36,3.24,32.02-10.78,31.67-25.18-.27-10.2-4.87-15.72-12.87-17.14-9.63-1.71-19.88,1.23-26.47,8.45ZM1018.72,221.5s0,.08.01.12c3.71,29.65,10.2,64.04-22.64,80.04-20.12,11.03-48.53,6.33-60.37-14.07-2.3-4.45,3.88-12.36,7.01-15.96,3.03-3.75,8.21-4.45,10.23-.89,2.72,4.77,5.27,9.81,9.76,11.11,8.47,2.46,18.2-2.43,23.51-17.28,4.05-11.33,3.62-21.51.03-33.46,0,0,0,0,0,0-1.06-4.35-4.31-5.91-6.84-2.57-26.57,26.23-50.78,64.72-91.79,65.64-19.97.82-19.03-3.45-27.06-17.4-.6-1.05-1.94-1.45-3.03-.9-6.56,3.3-12.64,6.61-18.67,9.44-22.62,11.51-62.96-2.16-47.64-32.26,4.43-9.57,7.96-16.48,12.97-25.73-5.65,2.09-10.12.56-15.74.53-12.74,30.15-38.72,54.66-69.76,53.17-17.39-.84-29.46-12.04-32.54-29.04-18.05,20.14-61.74,40.22-70.05,1.52-32.97,24.22-88.21,34.55-107.1-8.15-17.11,23.18-64.57,48.8-73.32,5.61-8.49,9.7-16.14,19.57-28.09,25.04-.11.04-.22.09-.33.13-24.35,7.8-42.19-12.3-42.53-35.44-11.07,14.86-21.3,30.76-37.67,39.23-.12.05-.23.1-.35.15-22.91,7.96-41.34-9.95-42.98-32.18,0,0,0,0,0,0-41.76,65.76-135.96,55.8-110.14-33.1,13.57-43.09,44.98-67.63,70.84-69.41,18.84-1.2,30.57,8.33,32.16,25.98,2.57,34.26-33,57.76-66.15,60.49-.73.62-1.23,1.06-1.96,1.68-2.12,10.2-2.99,19.57,1.65,23.59,8.54,8.5,31.34,4.13,37.05,1.68,11.47-3.85,29.95-24.12,35.75-33.16.68-1.51,1.34-2.99,2.02-4.5.54-1.85,1.07-3.7,1.61-5.55,0,0,0,0,0,.01,13.64-51.65,28.61-106.29,51.22-152.86,15.43-31.17,34.02-45.9,60.83-42.27.08.01.17.03.25.04,18.19,3.54,26.05,18.41,20.21,37.54-12,33.95-30.27,53.88-53.51,84.05-7.08,8.68-17.7,25.06-28.17,36.72-2.55,2.83-4.34,6.22-5.35,9.84-3.39,12.18-7.36,24.75-10.39,36.73-3.57,14.21,15.24,22.93,24.12,11.18,7.63-10.08,15.26-21.08,21.36-29.44,2.32-3.18,4.07-6.7,5.19-10.45,13.99-46.91,28.67-95.81,50.21-137.63,16.03-30.86,34.91-45.23,61.65-41.08.08.02.17.03.25.05,18.12,3.89,25.69,18.91,19.48,37.93-14.51,39.39-53.94,83.26-85.6,116-.22.23-.37.49-.45.79-4.62,17.28-11.76,36.73-16.14,54.49-3.09,12.64,13.46,20.56,21.74,10.44,9.42-11.51,19.2-25.16,26.38-34.78,1.24-2.09,2.46-4.15,3.7-6.24,6.46-14.13,13.14-28.29,19.78-42.54,3.04-6.93,8.04-8.56,15.8-9.44,7.01-.81,25.22-3.3,20.91,9.51,0,0,0,.01,0,.02-2.18,4.99-32.58,69.42-35.28,76.39,0,0,0,.01-.01.02-2.1,4.22-5.99,9.66-1.68,13.81,5.53,4.74,10.34-.7,14.6-3.13,5.11-3.01,9.33-6.89,13.56-10.77.07-.07.13-.14.2-.21,3.14-3.71,5.55-10.11,6.48-12.93,0-.03.01-.05.02-.08,6.72-32.45,29.65-53.84,51.92-64.13,42.48-19.73,83.98-3.66,57,38.74-9.92,17.8-42.68,14.54-34.83-2.16,2.2-4.41,5.01-8.52,7.24-12.93.04-.1.09-.21.13-.31,1.25-3.54,1.56-7.35-2.69-9.5-3.69-2.16-8.06-1.03-14.95,4.89-18.01,16.68-45.41,68.89-2.46,75.28,18.23,2.32,35.96-3.63,48.47-15.34,1.87-1.76,3.89-5.29,4.8-7.25,10.97-22.84,23.04-45.6,35-68.63,3.33-6.79,8.46-7.71,16.2-8.75,19.31-2.58,29.34-2.23,15.47,20.03-.02.04-.06.1-.08.14-11.32,21.64-22.47,43.33-33.47,65.06-2.28,4.13-6.41,9.4-2.28,13.73,5.32,4.97,10.37-.26,14.72-2.5,5.26-2.8,9.65-6.51,14.05-10.22.05-.04.1-.09.15-.13,6.08-5.87,9.09-19.08,13.61-26.91.03-.06.06-.12.09-.18,20.62-54.89,115.82-66.16,97.05,7.78,4.82,1.4,10.36,1.44,16.56-.22,1.53-.41,2.8-1.44,3.54-2.8,7.1-13.06,15.74-25.07,23.77-37.75,3.59-6.35,8.84-9.57,16.63-9.26,5.59.44,10.99-.63,16.56.13,8.99,1.04,11.13,5.15,6.43,12.88-15.73,24.51-31.58,48.7-44.25,74.73-2.92,6.4-.69,9.27,6.68,8.63,10.16-1.03,18.46-5.47,23.49-14.39,8.24-16.13,30.76-52.16,40.85-68.14,7.58-12.25,23.48-9.31,35.97-8.05.09.01.18.03.27.05,10.72,2.56,2.6,13.71-1.07,19.13-.02.03-.03.05-.05.08-4.45,7.71-38.45,61.32-40.76,68.12-6.24,17.63,25.98,8.42,32,1.32.06-.06.12-.11.18-.17,17.49-13.63,51.78-63.54,69.47-77.03,9.22-7.87,41.08-8.22,49.46.53,5.73,8.25-31.99,11.71-30.08,39.72ZM489.09,46.6c1.51-5.78.25-14.58-5.47-15.03-.08,0-.16,0-.25,0-3.24.12-11.43,4.41-28.62,41.62-9.27,20.23-18.3,44.31-25.04,63.65,22.34-27.89,49.31-55.05,59.37-90.24ZM387.75,84.97c6.57-10.55,13.86-22.89,16.33-35.98,1.4-5.81-.04-14.58-5.76-14.92-.08,0-.16,0-.24,0-3.24.18-11.34,4.64-27.8,42.17-8.93,20.39-25.88,62.21-32.13,81.69,14.21-17.68,37.36-53.4,49.61-72.96ZM214.16,212.59c20.18-4.52,38.67-27.31,31.3-42.06-.3-.31-.59-.61-.89-.92-10.32-5.41-23.57,13.04-32.92,40.1-.03.09-.06.18-.08.26,0,0,0,0,0,0-.41,1.55,1.01,2.97,2.6,2.61ZM771.02,187.19c-.55-6.28-3.06-9.89-7.55-10.15-29.99-3.26-62.09,76.8-34.15,79.87,11.57.58,26.32-14.39,34.47-34.84-.21-.86-.36-1.5-.57-2.35-6.21-5.55-8.39-13.82-5.97-20.51,1.66-4.56,5.6-8.25,11.97-9.67,1.07-.24,1.9-1.3,1.81-2.36ZM690.04,137.93c14.21,3.86,32.65-9.39,32.73-23.8.17-10.2-4.02-15.74-12.12-17.67-18.34-4.71-34.66,8.79-33.49,25.97-.49,7.8,4.83,13.38,12.88,15.51Z" />
    <path class="aq"
          d="M164.42-12.55c4.89-.39,9.71-.52,14.42-.37,9.54.16,19.16.73,28.72.06,5.98-.42,11.95-1.32,17.87-3.09,1.09-.33,2.09-.51,2.99-.57,7.66-.5,8.47,7.98,5,14.05-.02.04-.04.08-.06.12-.69,1.79-3.19,3.32-5.43,4.46-.05.02-.1.04-.14.07-9.55,4.09-13.8,12.11-17.12,20.92-25.32,67.72-33.46,140.01-51.96,209.33-.01.06-.02.12-.04.17-6.81,42.29-54.09,80.83-95.91,85.55-24.71,2.73-47.88-6.36-60.59-34.15-.03-.08-.07-.17-.1-.25-8.02-23.06-6.64-43.4,14.21-61.84,3.75-3.31,8.03-5.45,12.81-6.01,1.7-.2,3.46-.19,5.29.03,9.09,1.17,2.97,9.37.42,13.88-.02.04-.04.07-.06.11-5.11,11.61-2.42,22.45,3.46,32.42.06.09.13.19.19.28,6.93,9.03,18.76,12.13,30.33,10.88,9.02-.98,17.88-4.59,24.16-10.17,19.83-16.5,25.54-42.25,32.18-65.46,6.06-24.03,30.66-136.73,41.93-157.21,1.64-3.18,3.9-6.35,6.38-9.45,5.64-7.06-.39-16.6-9.25-15.9-.58.05-1.17.14-1.77.27-.07.02-.13.03-.2.05-21,5.14-40.54,13.18-55.22,29.35-13.76,15.7-23.31,45.43,2.37,54.25,8.23,2.81,16.02,6.35,11.79,16.18-3.89,10.5-12.45,17.15-22.75,18.16-3.64.36-7.51,0-11.47-1.13-27.25-8.09-38.15-23.65-39.07-49.06-.5-53.72,61.63-91.67,116.61-95.91M474.93,17.28c2.98-.03,6.06.2,9.26.7.08.02.17.03.25.05,18.12,3.89,25.69,18.91,19.48,37.93-14.51,39.39-53.94,83.26-85.6,116-.22.23-.37.49-.45.79-4.62,17.28-11.76,36.73-16.14,54.49-2.15,8.75,5.13,15.23,12.54,15.05,3.3-.08,6.64-1.49,9.19-4.61,9.42-11.51,19.2-25.16,26.38-34.78,1.24-2.09,2.46-4.15,3.7-6.24,6.46-14.13,13.14-28.29,19.78-42.54,3.04-6.93,8.04-8.56,15.8-9.44,2.34-.27,5.92-.72,9.49-.74,7.16-.03,14.29,1.71,11.42,10.25,0,0,0,.01,0,.02-2.18,4.99-32.58,69.42-35.28,76.39,0,0,0,.01-.01.02-2.1,4.22-5.99,9.66-1.68,13.81,1.6,1.37,3.14,1.89,4.63,1.88,3.64-.04,6.95-3.28,9.97-5.01,5.11-3.01,9.33-6.89,13.56-10.77.07-.07.13-.14.2-.21,3.14-3.71,5.55-10.11,6.48-12.93,0-.03.01-.05.02-.08,6.72-32.45,29.65-53.84,51.92-64.13,12.53-5.84,25.05-8.55,35.72-8.36,25.44.48,40.16,17.24,21.28,47.1-4.67,8.38-14.37,12.08-22.53,11.93-9.2-.16-16.48-5.22-12.3-14.1,2.2-4.41,5.01-8.52,7.24-12.93.04-.1.09-.21.13-.31,1.25-3.54,1.56-7.35-2.69-9.5-1.1-.64-2.26-.99-3.53-1.01-2.99-.05-6.59,1.75-11.43,5.9-18.01,16.68-45.41,68.89-2.46,75.28,2.33.3,4.65.46,6.95.49,15.72.21,30.61-5.61,41.52-15.83,1.87-1.76,3.89-5.29,4.8-7.25,10.97-22.84,23.04-45.6,35-68.63,3.33-6.79,8.46-7.71,16.2-8.75,5.35-.72,10-1.21,13.62-1.07,9.43.38,11.86,5.01,1.85,21.1-.02.04-.06.1-.08.14-11.32,21.64-22.47,43.33-33.47,65.06-2.28,4.13-6.41,9.4-2.28,13.73,1.54,1.44,3.06,2.02,4.54,2.07,3.64.12,7.09-2.98,10.18-4.58,5.26-2.8,9.65-6.51,14.05-10.22.05-.04.1-.09.15-.13,6.08-5.87,9.09-19.08,13.61-26.91.03-.06.06-.12.09-.18,10.9-28.76,42.4-45.82,67.16-44.38,22.23,1.27,38.65,17.3,29.89,52.16,1.77.51,3.64.85,5.6.98,3.38.22,7.04-.15,10.96-1.2,1.53-.41,2.8-1.44,3.54-2.8,7.1-13.06,15.74-25.07,23.77-37.75,3.59-6.35,8.84-9.57,16.63-9.26,5.08.4,10.01-.45,15.05-.04.5.04,1.01.1,1.51.16,8.99,1.04,11.13,5.15,6.43,12.88-15.73,24.51-31.58,48.7-44.25,74.73-2.48,5.42-1.26,8.3,3.64,8.68.89.07,1.9.05,3.04-.05,10.16-1.03,18.46-5.47,23.49-14.39,8.24-16.13,30.76-52.16,40.85-68.14,6.14-9.93,17.76-9.89,28.59-8.83,2.53.24,5.01.54,7.38.78.09.01.18.03.27.05,10.72,2.56,2.6,13.71-1.07,19.13-.02.03-.03.05-.05.08-4.45,7.71-38.45,61.32-40.76,68.12-2.4,6.78.89,9.59,6.17,10.08,8.47.78,22.13-4.36,25.83-8.75.06-.06.12-.11.18-.17,17.49-13.63,51.78-63.54,69.47-77.03,5.87-4.98,20.86-6.98,33.17-5.49,7.06.85,13.23,2.84,16.28,6.02,5.73,8.25-31.99,11.71-30.08,39.72,0,.04,0,.08.01.12,3.71,29.65,10.2,64.04-22.64,80.04-8.63,4.74-18.79,6.57-28.51,5.51-12.93-1.41-25.1-7.92-31.86-19.58-2.3-4.45,3.88-12.36,7.01-15.96,1.83-2.27,4.45-3.42,6.68-3.19,1.46.15,2.75.89,3.55,2.3,2.72,4.77,5.27,9.81,9.76,11.11.86.25,1.74.43,2.63.52,7.78.84,16.11-4.47,20.88-17.81,4.05-11.33,3.62-21.51.03-33.46,0,0,0,0,0,0-.63-2.58-2.03-4.18-3.6-4.35-1.07-.12-2.21.43-3.24,1.79-26.57,26.23-50.78,64.72-91.79,65.64-3.61.14-6.53.13-8.95-.08-10.98-.95-11.53-5.89-18.11-17.32-.39-.67-1.08-1.08-1.81-1.14-.41-.03-.83.04-1.21.24-6.56,3.3-12.64,6.61-18.67,9.44-6.36,3.24-14.08,4.48-21.57,3.94-19.23-1.39-37.15-14.51-26.07-36.2,4.43-9.57,7.96-16.48,12.97-25.73-3.07,1.14-5.8,1.2-8.54,1.02-1.62-.11-3.26-.3-4.98-.41-.72-.05-1.46-.08-2.22-.08-12.74,30.15-38.72,54.66-69.76,53.17-17.39-.84-29.46-12.04-32.54-29.04-10.72,12.05-30.66,23.97-46.69,23.51-10.87-.32-19.99-6.34-23.36-21.99-16.9,12.49-39.75,21.19-60.47,21.01-19.63-.18-37.43-8.34-46.63-29.16-10.23,13.98-31.57,28.71-48.75,28.96-11.42.16-21.07-6.09-24.57-23.35-8.49,9.7-16.14,19.57-28.09,25.04-.11.04-.22.09-.33.13-3.33,1.07-6.54,1.61-9.59,1.7-19.28.56-32.66-17.15-32.94-37.14-11.07,14.86-21.3,30.76-37.67,39.23-.12.05-.23.1-.35.15-3.26,1.13-6.43,1.74-9.47,1.89-18.32.89-32.12-15-33.51-34.07,0,0,0,0,0,0-17.01,26.69-42.33,40.75-64.86,42.39-33.14,2.4-61.02-22.37-45.28-75.49,13.57-43.09,44.98-67.63,70.84-69.41,18.84-1.2,30.57,8.33,32.16,25.98,2.57,34.26-33,57.76-66.15,60.49-.73.62-1.23,1.06-1.96,1.68-2.12,10.2-2.99,19.57,1.65,23.59,4.56,4.55,13.17,5.4,21.09,4.86,6.92-.48,13.3-2.03,15.97-3.18,11.47-3.85,29.95-24.12,35.75-33.16.68-1.51,1.34-2.99,2.02-4.5.54-1.85,1.07-3.7,1.61-5.55,0,0,0,0,0,.01,13.64-51.65,28.61-106.29,51.22-152.86,13.59-27.45,29.62-42.14,51.57-42.79,2.98-.09,6.06.08,9.27.52.08.01.17.03.25.04,18.19,3.54,26.05,18.41,20.21,37.54-12,33.95-30.27,53.88-53.51,84.05-7.08,8.68-17.7,25.06-28.17,36.72-2.55,2.83-4.34,6.22-5.35,9.84-3.39,12.18-7.36,24.75-10.39,36.73-2.48,9.82,5.76,17.01,13.99,16.65,3.69-.16,7.38-1.83,10.13-5.47,7.63-10.08,15.26-21.08,21.36-29.44,2.32-3.18,4.07-6.7,5.19-10.45,13.99-46.91,28.67-95.81,50.21-137.63,14.12-27.18,30.43-41.56,52.39-41.78M429.72,136.83c22.34-27.89,49.31-55.05,59.37-90.24,1.51-5.78.25-14.58-5.47-15.03-.08,0-.16,0-.25,0-3.24.12-11.43,4.42-28.62,41.62-9.27,20.23-18.3,44.31-25.04,63.65M338.14,157.93c14.21-17.68,37.36-53.4,49.61-72.96,6.57-10.55,13.86-22.89,16.33-35.98,1.4-5.81-.04-14.58-5.76-14.92-.08,0-.16,0-.24,0-3.24.18-11.34,4.64-27.8,42.17-8.93,20.39-25.88,62.21-32.13,81.69M213.83,212.64c.11,0,.22-.02.34-.05,20.18-4.52,38.67-27.31,31.3-42.06-.3-.31-.59-.61-.89-.92-1.38-.72-2.82-1.02-4.29-.93-9.52.62-20.53,17.59-28.63,41.02-.03.09-.06.18-.08.26,0,0,0,0,0,0-.38,1.44.81,2.76,2.26,2.66M729.32,256.91c11.57.58,26.32-14.39,34.47-34.84-.21-.86-.36-1.5-.57-2.35-6.21-5.55-8.39-13.82-5.97-20.51,1.66-4.56,5.6-8.25,11.97-9.67,1.07-.24,1.9-1.3,1.8-2.36-.55-6.28-3.06-9.89-7.55-10.15,0,0,0,0,0,0-.28-.03-.56-.05-.83-.07-29.77-1.7-60.99,76.9-33.31,79.94M704.51,95.54c2.01.09,4.06.39,6.14.92,8.1,1.93,12.29,7.47,12.12,17.67-.07,12.97-15.04,25-28.38,24.46-1.48-.06-2.94-.28-4.36-.66-8.05-2.12-13.37-7.7-12.88-15.51-1.02-15.22,11.66-27.56,27.35-26.88M518.43,91.9c1.8,0,3.6.16,5.39.47,8,1.42,12.6,6.94,12.87,17.14.32,12.97-13.98,25.62-27.29,25.66-1.48,0-2.94-.15-4.38-.47-16.29-3.05-17.24-25.83-7.67-33.87,5.37-5.88,13.17-8.92,21.09-8.92M163.94-18.53c-29.59,2.34-59.84,13.6-82.66,30.72-12.35,9.26-22.03,19.8-28.79,31.29-7.45,12.66-11.14,26.12-11.05,39.99,0,.03,0,.06,0,.09,0,.03,0,.06,0,.09.54,14.35,4.13,25.57,10.92,34.34,7.13,9.21,17.8,15.78,32.6,20.17,0,0,.02,0,.03,0,0,0,.02,0,.03,0,4.68,1.34,9.36,1.8,13.92,1.36,12.87-1.26,23.33-9.47,28.06-22.04,2-4.73,2.14-9.05.4-12.85-2.84-6.16-9.67-8.96-15.87-11.07-6.08-2.1-9.76-5.6-11.22-10.71-2.94-10.27,3.53-24.92,11.54-34.08,11.79-12.94,27.79-21.44,51.85-27.35.05-.01.1-.02.15-.03.26-.06.52-.1.77-.12,2.44-.2,3.66,1.53,3.98,2.07.49.83,1.09,2.49-.35,4.3-3.14,3.94-5.36,7.25-6.99,10.4-8.22,15.33-23.05,75.93-33.22,120.24-3.88,16.76-7.16,31.24-8.95,38.06-.55,1.91-1.09,3.85-1.63,5.79-5.84,21-11.79,42.69-28.5,56.6-.02.02-.05.04-.07.06-.02.02-.05.04-.07.06-5.22,4.64-12.77,7.79-20.72,8.65-10.63,1.15-19.6-1.89-24.67-8.38-5.71-9.79-6.73-18.27-3.1-26.67.22-.38.47-.79.73-1.22,2.56-4.27,6.1-10.12,3.36-15.62-1.09-2.18-3.56-4.94-9.16-5.66-2.32-.29-4.61-.3-6.83-.04-5.9.68-11.37,3.22-16.26,7.54-20.82,18.42-25.66,40.16-15.83,68.24.02.04.03.09.05.13.02.04.03.09.05.13.02.04.03.08.05.13.02.04.03.08.05.13.02.04.03.09.05.13.02.04.04.08.06.13,6.63,14.48,16.25,25.01,28.56,31.36,11.15,5.75,23.99,7.85,38.24,6.27,21.66-2.4,45.01-13.37,64.39-30.14,17.68-15.31,29.96-33.5,35.11-52.12-.23,18.04,5.7,29.82,11.77,37.18,10.19,12.31,26.4,18.54,44.63,17.22,12.58-.91,25.45-5.3,37.29-12.72,8.92-5.58,17.11-12.83,24.16-21.32,2.08,5.36,5.11,10.23,8.96,14.28,7.48,7.89,17.34,11.94,27.81,11.44,3.69-.18,7.45-.92,11.17-2.22.07-.02.14-.05.21-.07.07-.03.13-.06.2-.09.04-.02.07-.03.11-.05.08-.03.16-.07.24-.1.07-.03.13-.06.2-.09.06-.03.13-.07.19-.1,13.28-6.87,22.66-17.96,31.27-29.44,2.33,7.07,6.21,13.37,11.35,18.24,7.07,6.69,15.83,10.07,25.38,9.79,3.69-.11,7.48-.78,11.27-1.99.06-.02.12-.04.17-.06.06-.02.11-.04.17-.07.05-.02.11-.04.16-.06.06-.02.11-.04.17-.06.06-.02.11-.04.17-.07.05-.03.11-.05.16-.08,9.63-4.4,16.66-11.25,23.06-18.42,6.94,15.04,19.46,17.39,27.16,17.29,16.38-.24,35.27-11.59,47.53-24.29,10.16,15.75,26.73,24.3,47.71,24.49,18.37.16,39.52-6.4,57.16-17.44,6.46,15.36,18.97,18.19,26.56,18.42,14.99.43,31.84-8.05,43.92-18.26,6.11,14.18,18.86,23,35.2,23.78,16.13.78,31.93-4.77,45.88-16.07,11.33-9.19,21.21-22.15,28.09-36.85.1,0,.2.02.31.03.31.03.63.06.95.09-2.82,5.48-5.21,10.39-7.91,16.24-6.46,12.73-3.88,22.14-.62,27.8,5.49,9.49,17.64,15.97,31.75,16.99,8.87.64,17.62-.97,24.68-4.54,4.14-1.94,8.2-4.05,12.51-6.28.99-.51,1.99-1.03,2.99-1.54.36.66.7,1.29,1.02,1.89,4.46,8.27,7.66,14.24,20.08,15.31,2.64.23,5.71.26,9.67.1,15.87-.38,29.34-5.9,41.32-13.99.11,1.46.49,2.84,1.16,4.12.02.04.04.09.07.13.02.04.05.08.07.13,7.34,12.65,20.6,20.84,36.47,22.57,11.13,1.21,22.46-.97,31.98-6.16,15.45-7.6,24.57-19.44,27.76-36.34,2.66-14.06.78-29.23-1.09-43.9-.24-1.91-.48-3.8-.71-5.68-.82-13.44,10.17-19.86,19.07-24.98,5.79-3.34,10.38-5.96,11.48-10.7.38-1.65.44-4.19-1.45-6.91-.09-.13-.18-.27-.28-.4-.11-.12-.23-.23-.34-.35-4.92-5.12-13.66-7.14-20.13-7.92-12.95-1.57-30.11.32-37.91,6.82-9.06,7.02-21.52,22.02-34.53,37.98-12.98,15.89-26.23,32.4-34.71,38.96-.09.07-.18.14-.27.21-.08.08-.16.16-.24.23-.03.03-.07.06-.1.09-.03.03-.05.05-.08.08-.08.07-.15.15-.23.22-.07.08-.13.16-.2.24-2.09,2.48-13.62,7.24-20.56,6.61-.69-.06-1.14-.17-1.41-.26.03-.35.13-.94.45-1.85,1.35-3.77,17.2-29.69,26.84-45.12,6.53-10.5,11.77-18.82,13.52-21.91.1-.14.2-.29.3-.43,3.62-5.32,9.14-13.34,6.21-20.51-1.02-2.5-3.46-5.77-9.3-7.16-.07-.02-.14-.03-.21-.05-.07-.01-.14-.02-.21-.04-.05,0-.09-.02-.14-.02-.04,0-.09-.01-.13-.02-.07-.01-.14-.02-.21-.04-.07,0-.14-.01-.21-.02-1.1-.11-2.22-.23-3.37-.36-1.32-.15-2.67-.29-4.03-.42-8.36-.82-25.79-2.44-34.52,11.71-1.28,2.05-2.8,4.46-4.47,7.13-11.03,17.56-29.14,47.02-36.44,61.29-3.79,6.68-9.9,10.34-18.68,11.24-.22.02-.43.03-.63.04.02-.05.05-.11.07-.16,10.84-22.18,24.34-43.53,37.59-64.11,2.14-3.32,4.28-6.64,6.42-9.97.01-.02.03-.04.04-.06.01-.02.02-.04.04-.06,1.29-2.13,5.26-8.6,2.12-14.69-2.05-3.99-6.48-6.42-13.14-7.21-.58-.08-1.18-.14-1.79-.19-2.92-.24-5.66-.12-8.3,0-2.37.11-4.61.21-6.76.04-.04,0-.08,0-.12,0-.04,0-.08,0-.12,0-9.9-.39-17.39,3.73-22.23,12.23-2.7,4.27-5.53,8.55-8.26,12.7-5.31,8.06-10.77,16.41-15.52,25.15-2.57.67-5.04,1.01-7.36.99,3.54-19.74-1.42-31.75-6.58-38.51-6.62-8.7-17.41-13.94-30.32-14.68-13.68-.79-29.21,3.52-42.5,11.8-14.24,8.87-25.09,21.72-30.65,36.13-1.82,3.24-3.36,7.1-4.86,10.85-2.16,5.4-4.59,11.53-7.42,14.33-4.22,3.56-8.2,6.92-12.86,9.4-1.07.56-2.08,1.19-3.05,1.81-1.16.73-3.31,2.09-4.05,2.07,0,0-.16-.09-.39-.29,0,0-.01-.01-.01-.02-.03-.94,1.49-3.52,2.23-4.77.38-.64.75-1.27,1.08-1.87.02-.03.03-.06.05-.09.02-.03.03-.06.05-.09,11-21.68,22.15-43.31,33.47-64.9,7.08-11.41,8.88-18.54,5.91-23.84-.43-.77-.92-1.44-1.47-2.02,6.99-.9,14.1-4.24,19.76-9.4,6.44-5.87,10.19-13.42,10.24-20.74.28-16.02-8.98-21.68-16.84-23.56-2.46-.63-4.97-1-7.46-1.11-9.25-.4-18.25,2.97-24.65,9.21-6.39,6.22-9.73,14.84-9.24,23.67-.32,7.43,3.34,13.9,9.75,17.96-2.54.22-5.18.54-7.76.89-7.52,1.01-16.05,2.19-20.91,12.05-3.9,7.54-7.88,15.17-11.71,22.55-7.84,15.11-15.85,30.75-23.23,46.15,0,.01-.01.02-.02.04,0,.01-.01.03-.02.04-.94,2.03-2.55,4.55-3.45,5.39-9.83,9.21-23.36,14.36-37.22,14.17-2.05-.03-4.13-.17-6.18-.43-9.19-1.41-14.64-5.07-16.66-11.25-4.91-14.89,10.13-42.16,22.47-53.67,4.85-4.14,6.79-4.32,7.13-4.31.07,0,.17,0,.41.15.06.03.11.07.17.1.06.03.12.06.18.09.07.03.12.07.17.09,0,.27-.06.87-.42,1.94-.99,1.94-2.11,3.84-3.29,5.85-1.3,2.21-2.64,4.49-3.84,6.91,0,.02-.02.04-.03.06,0,.02-.02.04-.03.06-2.47,5.25-2.33,10.44.38,14.61,3.21,4.95,9.55,7.85,17.42,7.99,8.94.16,21.59-3.63,27.98-14.92,12.55-19.95,10.31-32.99,6.11-40.44-5.42-9.64-17.33-15.39-32.62-15.67-12.14-.22-25.5,2.87-38.55,8.96-12.88,5.97-24.58,14.72-33.8,25.27-10.85,12.41-18,26.82-21.35,42.77-1.12,3.37-3.08,7.99-5.11,10.49-3.84,3.53-7.79,7.16-12.3,9.82-1.05.6-2.03,1.28-2.97,1.94-1.12.78-3.22,2.23-3.95,2.24,0,0-.16-.08-.41-.27,0,0-.01-.01-.01-.02-.07-.93,1.34-3.58,2.03-4.86.35-.66.69-1.29,1-1.91.02-.03.03-.06.05-.1.01-.03.03-.07.04-.1,0,0,0-.01,0-.02,0-.01.01-.03.02-.04.01-.02.02-.05.03-.07.01-.02.02-.05.03-.07,1.35-3.27,9.29-20.57,17.11-37.28,10.3-22.03,17.27-36.62,18.31-39.17.01-.04.03-.07.04-.11.01-.04.03-.07.04-.11,0-.02.01-.04.02-.06,0-.03.02-.05.03-.08,2.04-6.06.42-10.05-1.3-12.33-.77-1.02-1.7-1.9-2.79-2.65,7.6-.7,15.46-4.46,21.49-10.37,6.27-6.15,9.79-13.91,9.6-21.32-.42-17.19-11.45-21.74-18-22.89-2.15-.38-4.35-.57-6.54-.57-9.91,0-19.23,3.91-25.58,10.7-6.83,6.01-9.66,17.45-6.81,27.4,1.79,6.25,5.51,11.08,10.59,13.98-2.81.11-5.41.41-7.42.65-.27.03-.53.06-.8.09-7.67.87-16.25,2.69-20.78,13.01-3.58,7.7-7.22,15.49-10.73,23.03-2.92,6.29-5.93,12.79-8.84,19.18-.56.95-1.12,1.9-1.69,2.85-.56.95-1.12,1.9-1.68,2.85-1.26,1.7-2.6,3.51-4.01,5.42-6.43,8.72-14.38,19.59-21.96,28.87-1.25,1.53-2.79,2.32-4.59,2.37-2.04.05-4.11-.89-5.4-2.46-1.19-1.44-1.54-3.19-1.05-5.18,2.29-9.24,5.41-19.16,8.44-28.75,2.6-8.2,5.29-16.66,7.47-24.61,45.01-46.35,74.68-85.5,86.35-117.37.01-.03.02-.06.04-.1.01-.03.02-.07.03-.1,3.84-11.76,3.18-22.46-2.02-30.95-4.53-7.4-12.18-12.46-22.1-14.59-.03,0-.06-.01-.09-.02-.03,0-.06-.01-.1-.02-.02,0-.04,0-.06-.01-.07-.01-.14-.02-.2-.04-.03,0-.06-.01-.09-.02-.03,0-.06,0-.09-.01-3.54-.55-7.03-.81-10.38-.78-18.82.19-34.46,9.36-48.03,28.52-.71-3.98-2.13-7.67-4.26-11-4.67-7.31-12.41-12.22-22.38-14.16-.03,0-.06-.01-.09-.02-.03,0-.06-.01-.1-.02-.02,0-.04,0-.06-.01-.07-.01-.14-.02-.2-.03-.03,0-.06,0-.09-.01-.03,0-.06,0-.09-.01-3.55-.48-7.05-.68-10.39-.58-23.61.69-41.94,15.45-57.16,46.27-22.7,46.9-37.49,100.95-51.23,153.24-.04.17-.09.33-.13.5,0,0,0,0,0,0-.5,1.72-.99,3.43-1.49,5.15-.28.62-.56,1.25-.84,1.87-.27.61-.55,1.23-.82,1.84-5.74,8.74-22.83,27.13-32.26,30.29-.08.03-.17.06-.25.08-.08.04-.16.07-.24.11-1.92.83-7.67,2.25-13.94,2.68-7.75.53-13.85-.61-16.33-3.09-.05-.05-.1-.1-.15-.15-.05-.05-.11-.09-.16-.14-.8-.7-2.33-3.55-.23-15.08,21.27-2.47,42.02-12.67,54.88-27.18,10.19-11.51,15.07-25.14,13.97-39.47,0-.01,0-.02,0-.04,0-.01,0-.02,0-.04-.92-10.26-4.97-18.61-11.76-24.11-6.75-5.47-16.09-8.01-26.97-7.31-14.78,1.03-30.43,8.45-43.94,20.87-11,10.11-20.08,23.01-26.73,37.83,3.92-17.3,7.49-34.65,11.05-51.65,8.46-40.38,17.49-82.13,32.27-121.39,3.12-8.26,6.65-14.39,13.71-17.42.03-.01.07-.03.1-.04.03-.02.06-.03.1-.05.02-.01.05-.02.07-.03.02-.01.05-.02.07-.03.04-.02.07-.03.11-.05.04-.02.07-.04.11-.05,3.05-1.56,6.72-3.78,8.29-7.36,2.75-5,3.91-12.24.3-17.44-2.46-3.54-6.67-5.4-11.55-5.08-1.45.09-2.97.38-4.54.85-4.91,1.47-10.25,2.39-16.35,2.82-7.08.49-14.47.27-21.63.08-2.15-.06-4.29-.12-6.43-.15-4.91-.15-10-.02-15.14.39h0ZM448.29,104.63c4.29-10.88,8.43-20.67,12.28-29.06,12.49-26.99,19.5-34.9,22.25-37.2.48,1.52.75,4.18.09,6.75-6.3,22.12-19.91,41.28-34.62,59.51h0ZM360.7,115.47c5.45-13.56,11.11-27.06,15.43-36.97,11.96-27.23,18.82-35.28,21.52-37.63.51,1.52.83,4.2.21,6.81-.01.05-.02.09-.03.14,0,.05-.02.09-.03.14-2.26,12.1-9.21,23.87-15.49,33.97-5.56,8.94-13.42,21.2-21.61,33.54h0ZM335.4,236.06c-2.44.11-4.93-.99-6.5-2.87-1.01-1.21-2.06-3.3-1.28-6.35,1.77-6.96,3.92-14.3,6-21.4,1.47-5,2.99-10.17,4.4-15.21.78-2.8,2.18-5.38,4.05-7.46,6.86-7.63,13.59-16.95,19.56-25.17,3.26-4.49,6.36-8.73,8.86-11.79.02-.02.04-.04.05-.07.02-.02.03-.04.05-.07,2.91-3.77,5.74-7.39,8.49-10.89,3.65-4.64,7.17-9.09,10.54-13.47-7.75,22.12-14.62,44.81-21.26,67.14-.65,2.19-1.3,4.39-1.95,6.58-.92,3.09-2.36,6-4.28,8.64-1.74,2.39-3.6,4.99-5.55,7.72-4.84,6.78-10.3,14.47-15.7,21.61-1.46,1.93-3.3,2.95-5.49,3.05t0,0ZM220.29,204.07c8.19-20.49,16.46-28.87,20.18-29.37,1.29,4.29-.55,9.06-1.85,11.69-3.66,7.34-10.65,13.91-18.33,17.68h0ZM729.81,250.93c-4.93-.72-5.43-7.56-4.97-13.22.89-10.94,6.35-25.4,14.01-36.8,7.81-11.64,16.6-18.35,23.44-17.95.17,0,.34.02.51.04.05,0,.11.01.16.02.05,0,.11,0,.16,0,.36.02.38.05.55.28.14.2.4.62.65,1.41-6.25,2.28-10.76,6.62-12.89,12.48-3,8.32-.68,18.04,5.68,25-7.61,17.57-19.91,28.89-27.29,28.73h0ZM954.63,264.02c4.76-4.93,9.32-9.98,13.78-14.89,4.35-4.79,8.52-9.36,12.72-13.66,2.71,10.28,2.47,18.3-.66,27.1-3.31,9.29-8.71,14.46-14.47,13.84-.52-.06-1.05-.16-1.57-.31-1.78-.52-3.89-4.27-5.59-7.28-.19-.33-.37-.66-.56-.99-.9-1.59-2.16-2.88-3.65-3.8h0Z" />
    <path class="bf"
          d="M929.68,258.46c-4.97,5.86-27.66,13.08-32.04,5.66-.05,1.74.32,3.27,1.16,4.55,1.43,2.19,3.99,3.47,7.62,3.81,9.14.84,23.38-4.61,27.5-9.36.01-.01.03-.03.04-.04,9.24-7.17,22.77-23.98,36.03-40.16,12.23-14.95,25.04-30.34,33.41-36.77,5.15-4.36,19.01-6.58,31.61-5.05,5.99.73,10.82,2.26,13.65,4.26.87-1.15,1.02-2.31.13-3.59-8.38-8.75-40.23-8.4-49.46-.53-17.69,13.49-51.97,63.4-69.47,77.03-.07.06-.12.12-.19.18Z" />
    <path class="ar"
          d="M940.19,289.9c-1.13-2.21,1.44-7.49,6.8-13.67,1.38-1.71,3.3-2.67,4.93-2.5.89.09,1.55.52,1.98,1.28.18.32.37.65.55.97,2.67,4.74,5.42,9.64,10.4,11.09.98.29,1.98.49,2.98.59,9.75,1.06,18.34-6.07,23.01-19.11,3.98-11.1,4.05-21.46.12-34.64-.84-3.38-2.84-5.56-5.35-5.84-.22-.02-.49-.03-.78-.01.61.74,1.11,1.77,1.42,3.03,0,0,0,0,0,0,3.59,11.96,4.01,22.14-.03,33.46-5.31,14.85-15.04,19.75-23.51,17.28-4.49-1.3-7.04-6.34-9.76-11.11-2.02-3.56-7.2-2.86-10.23.89-3.13,3.6-9.31,11.51-7.01,15.96,4.71,8.14,12.08,13.76,20.49,16.9-6.79-3.25-12.35-8.24-16.02-14.6Z" />
    <path class="bb"
          d="M838.98,260.35c-3.59.31-5.95-.21-7.1-1.57-.14,1.48.11,2.75.76,3.83,1.07,1.77,3.07,2.78,5.96,3,1,.08,2.13.06,3.37-.05,11.54-1.16,19.96-6.31,25.08-15.39,7.2-14.03,25.34-43.42,36.38-60.91,1.67-2.66,3.19-5.06,4.49-7.14,5.62-9.07,16.69-8.84,26.61-7.87,1.32.13,2.63.27,3.92.41,1.14.13,2.27.25,3.37.36.04,0,.09.01.13.02,1.59.39,2.41.94,2.87,1.41.4-3.02-.78-5.6-5.26-6.66-.09-.02-.19-.03-.28-.05-12.49-1.26-28.39-4.2-35.96,8.05-10.09,15.98-32.61,52.01-40.85,68.14-5.03,8.92-13.33,13.36-23.49,14.39Z" />
    <path class="as"
          d="M793.07,214.02c2.77,2.96,4.74,4.01,6.8,4.39,3.33.61,8.29.98,11.97.09,2.65-.64,4.59-1.67,6.1-4.08,5.03-8.02,10.08-16.21,15.2-23.96,2.78-4.21,5.67-8.56,8.44-12.94,3.38-5.96,8.06-8.57,14.78-8.3,0,0,2.77-.05,2.77-.05,2.8-.02,2.22-.11,4.87-.16,2.49-.05,4.92-.02,7.3.18.46.04.93.09,1.4.15,2.2.26,4.85.83,6.16,2.07.67-4.17-2.24-6.54-8.74-7.3-5.57-.76-10.97.31-16.56-.13-7.79-.31-13.04,2.91-16.63,9.26-7.99,12.61-16.58,24.56-23.66,37.54-.81,1.49-2.19,2.63-3.87,3.07-5.51,1.44-11.93,1.17-16.35.17" />
    <path class="bc"
          d="M807.46,226.76c-1.22.25-2,.37-3.24.57-4.55,8.45-8.93,16.99-12.97,25.73-8.96,17.51,1.04,29.44,15.3,34.11-5.16-2.29-9.24-5.63-11.57-9.68-3.33-5.79-3.24-13.65.72-21.36,3.93-8.47,8.16-18.46,14-29.18.4-.73-1.31-.4-2.24-.19" />
    <path class="bm" d="M867.99,284.25c-.83-1.55-1.77-3.3-2.88-5.23-.7-1.22-2.03-2.23-3.35-2.75-.79-.31-2.17-.55-2.65-.58,3.09.39,6.03,16.07,15.56,17.76-2.62-1.64-4.13-4.46-6.68-9.21Z" />
    <path class="au"
          d="M772.6,194.68c2.07-.46,3.56-2.41,3.38-4.45-.81-9.37-5.63-11.56-8.84-11.95,2.21,1.58,3.51,4.63,3.88,8.93.09,1.06-.73,2.11-1.79,2.35-6.38,1.42-10.31,5.1-11.98,9.67-2.42,6.68-.23,14.96,5.98,20.51.21.85.36,1.49.57,2.35-8.15,20.44-22.9,35.42-34.47,34.84-4.76-.54-7.77-3.31-9.35-7.52,1.35,7.43,5.49,11.92,12,12.66.04,0,.08,0,.13.01,12.59.64,27.86-14.52,36.48-36.08.15-.38.18-.79.09-1.18-.19-.78-.38-1.57-.56-2.35-.09-.39-.31-.75-.61-1.02-5.44-4.87-7.62-12.25-5.4-18.37,1.58-4.31,5.21-7.21,10.51-8.39Z" />
    <path class="bg"
          d="M696.02,206.23c-.03.06-.06.13-.09.19-4.51,7.83-7.53,21.04-13.61,26.91-.05.04-.1.09-.15.13-4.4,3.71-8.8,7.42-14.05,10.22-4.35,2.25-9.4,7.48-14.72,2.5-.33-.35-.59-.7-.82-1.06,0,1.87.61,3.76,2.29,5.53.03.03.06.06.08.08,1.79,1.67,3.76,2.55,5.87,2.63,3.27.11,6.15-1.71,8.7-3.32.88-.55,1.71-1.08,2.48-1.47,5.49-2.92,10.03-6.75,14.43-10.46.06-.06.13-.12.19-.17,4.16-4.01,6.84-10.73,9.45-17.23,1.52-3.78,2.95-7.35,4.58-10.16.03-.04.05-.09.07-.14.03-.06.06-.13.09-.19.02-.05.04-.09.06-.14,10.85-28.54,41.72-44.42,65.11-43.03,10.54.61,18.88,4.58,24.09,11.43,2.05,2.7,3.59,5.83,4.62,9.34-8.12-43.82-81.02-28.64-98.69,18.43Z" />
    <path class="az" d="M686.18,251.98c2.95,15.33,11.85,24.13,23.52,27.56-9.77-4.11-16.46-12.78-18.6-24.78-.14-.76-.7-1.37-1.45-1.58-.15-.04-3.31-1.19-3.46-1.19" />
    <path class="bq"
          d="M507.92,217.29s-.02.06-.02.09c-.93,2.82-3.34,9.22-6.47,12.92-.07.07-.13.14-.2.21-4.22,3.88-8.44,7.76-13.56,10.77-4.25,2.43-9.07,7.87-14.6,3.13-.35-.33-.62-.68-.87-1.03.08,1.87.77,3.73,2.52,5.42.03.03.06.05.09.08,1.86,1.59,3.87,2.39,5.97,2.37,3.27-.03,6.07-1.98,8.55-3.69.85-.59,1.66-1.15,2.41-1.58,5.36-3.15,9.71-7.16,13.93-11.03.03-.03.28-.29.28-.29.03-.03.06-.07.1-.1,3.62-4.27,6.16-11.48,6.86-13.59.01-.04.04-.15.05-.19,0-.04.02-.08.03-.11,8.09-38.94,38.2-56.89,50.82-62.68,11.72-5.45,24.09-8.34,34.77-8.14,12.19.23,21.48,4.44,25.45,11.5.37.66.68,1.35.97,2.06-3.67-19.99-34.3-24.64-65.17-10.26-22.27,10.29-45.2,31.68-51.92,64.12Z" />
    <path class="bn"
          d="M590.76,168.32c-1.24-.72-2.56-1.11-3.92-1.22,4.09,2.15,3.78,5.92,2.54,9.41-.04.1-.09.2-.13.31-2.23,4.4-5.04,8.51-7.24,12.93-3.55,7.53,1.16,12.31,8.28,13.69-1.57-.72-2.81-1.66-3.54-2.8-1.2-1.87-1.15-4.22.17-7,1.07-2.14,2.34-4.3,3.58-6.39,1.24-2.09,2.52-4.26,3.65-6.49.02-.04.19-.42.19-.42.02-.04.03-.08.05-.12,2.49-7-.57-10.34-3.61-11.9Z" />
    <path class="aw" d="M509.03,245.35c6.77,15.55,18.56,23.73,31.04,27.11-10.11-3.56-19.94-10.83-26.13-24.91-.29-.66-1.32-1.29-2.01-1.56-.71-.28-2.83-.64-2.9-.64" />
    <path class="bj"
          d="M617.75,231.84c-12.51,11.7-30.24,17.65-48.47,15.34-11.88-1.8-18.36-7.06-21.17-14.12.18.82.38,1.62.64,2.41,3.04,9.24,10.85,14.84,23.22,16.73,2.42.31,4.84.48,7.22.52,15.95.23,31.56-5.71,42.94-16.35,2.24-2.1,4.42-6.06,5.26-7.86,7.36-15.28,15.39-30.87,23.23-45.92,3.92-7.52,7.86-15.05,11.8-22.61,2.86-5.81,6.98-6.63,14.63-7.66,4.71-.63,9.58-1.19,13.24-1.04,2.64.11,4.39.56,5.34,1.36.61-7.57-8.38-7.23-21.88-5.41-7.74,1.04-12.86,1.95-16.2,8.75-11.96,23.02-24.03,45.79-35,68.63-.91,1.96-2.93,5.49-4.8,7.25Z" />
    <path class="am"
          d="M690.04,137.93c.14.04.28.06.42.1-5.52-2.43-8.54-6.87-8.19-12.36,0-.08,0-.16,0-.25-.44-6.81,2-13.18,6.9-17.94,4.83-4.69,11.33-7.11,18.28-6.81,1.89.08,3.8.37,5.68.86,4.69,1.12,7.74,3.57,9.3,7.5-1.14-6.99-5.16-10.99-11.78-12.57-18.34-4.71-34.66,8.79-33.49,25.97-.49,7.8,4.83,13.38,12.88,15.51Z" />
    <path class="ax" d="M616.12,253.5c2.79,13.52,10.01,19.4,17.86,21.28-6.53-2.85-10.87-9.06-12.91-18.62-.14-.67-.62-1.22-1.27-1.46-.22-.08-3.46-1.2-3.68-1.2" />
    <path class="ay"
          d="M497.34,100.82c-9.57,8.04-8.63,30.82,7.67,33.87.16.04.32.06.47.09-5.28-2.25-7.41-6.99-8.24-9.91-2.04-7.21-.06-15.62,4.64-19.56.07-.06.14-.12.2-.19,4.78-5.22,11.89-8.23,19.49-8.22,1.67,0,3.35.15,5,.44,4.63.82,7.79,3.16,9.53,7.06-1.48-6.97-5.75-10.88-12.29-12.03-9.63-1.71-19.88,1.23-26.47,8.45Z" />
    <path class="aj" d="M435.71,250.96c3.02,15.23,10.71,21.24,19.05,22.88-7.11-2.77-11.8-9.55-13.97-20.33-.15-.75-.72-1.35-1.47-1.54-.18-.05-3.43-1.01-3.62-1.01" />
    <path class="ak"
          d="M454.62,207.03c.04-.06.08-.12.12-.18,1.24-2.09,2.47-4.17,3.71-6.26.04-.06.07-.12.1-.19,2.96-6.46,5.96-12.92,8.99-19.39,3.59-7.68,7.21-15.39,10.82-23.12,2.62-5.96,6.65-7.41,14.15-8.26.27-.03.54-.06.81-.09,2.27-.26,5.38-.62,8.44-.63,5.39-.02,7.83,1.04,8.92,2.07.37-9.17-15.19-7.05-21.55-6.31-7.77.88-12.77,2.51-15.8,9.44-6.64,14.25-13.32,28.41-19.77,42.53-1.24,2.1-2.47,4.17-3.71,6.26-7.18,9.61-16.96,23.26-26.37,34.76-6.21,7.58-17.01,5.04-20.78-2,.4,2.21,1.35,4.29,2.84,6.1,2.89,3.52,7.34,5.55,11.92,5.44,4.17-.1,7.98-2,10.72-5.35,7.73-9.44,15.77-20.39,22.26-29.18,1.47-1.99,2.87-3.88,4.19-5.64Z" />
    <path class="bp" d="M364.75,240.68c.54,19.23,11.75,33.68,26.38,36.59-3.62-1.26-6.96-3.31-9.93-6.13-7.01-6.66-10.66-15.99-11.24-26.97-.05-.86-1.38-2.31-2.21-2.57-.23-.07-2.76-.92-2.99-.91" />
    <path class="ao"
          d="M429.72,136.83c3.51-4.38,7.36-7.88,11.19-12.05,20.77-22.68,44.82-44.63,53.44-74.69,1.13-4.32,1.02-10.67-1.91-14.52-1.37-1.8-3.24-2.85-5.41-3.03-.04,0-.44-.01-.46-.01-.02,0-.04,0-.07,0-.08,0-.16,0-.25.01,3.44,2.52,4.08,9.29,2.84,14.05-9.53,33.33-34.23,59.45-55.79,85.83-1.34,1.38-2.25,2.85-3.58,4.41" />
    <path class="ba"
          d="M367.14,207.15c-6.09,8.36-13.72,19.35-21.35,29.43-6.67,8.8-18.86,6.11-23.09-1.76.49,2.29,1.52,4.42,3.08,6.3,3.16,3.79,8.19,6.01,13.14,5.79,4.62-.2,8.76-2.42,11.67-6.26,5.49-7.24,10.99-14.97,15.87-21.79,1.94-2.71,3.79-5.29,5.52-7.66,2.47-3.38,4.32-7.1,5.5-11.07.65-2.19,1.31-4.38,1.97-6.57,13.42-44.76,27.75-91,48.24-130.7,14.51-27.86,30.22-40.42,50.5-40.61,2.84-.03,5.83.2,8.88.68.06.01.12.02.18.03,7.47,1.61,13.22,5.35,16.54,10.78.57.93,1.06,1.9,1.48,2.91-2.28-9.4-9.51-16.2-20.83-18.62-.08-.01-.16-.03-.25-.05-26.74-4.15-45.62,10.21-61.65,41.08-21.54,41.81-36.22,90.71-50.21,137.62-1.12,3.75-2.88,7.28-5.2,10.47Z" />
    <path class="bl" d="M283.75,247.88c1.71,19.09,13.21,31.39,27.33,33.71-11.91-3.78-21.13-15.89-23.07-30.99-.17-1.35-1.2-2.01-2.05-2.22-.2-.05-2-.52-2.2-.51" />
    <path class="bh"
          d="M247.2,258.8c-5.72,2.45-28.52,6.82-37.05-1.68-.59-.51-1.09-1.12-1.51-1.8.59,2.43,1.65,4.5,3.37,6.02,5.46,5.4,15.29,5.91,22.6,5.42,6.88-.47,13.5-2,16.55-3.29,13.51-4.61,35.86-30.26,38.49-37.22,0-.03.08-.25.08-.25,0,0,2.04-7.02,2.06-7.07.06-.22.11-.43.17-.65,13.78-51.95,28.59-105.64,51.06-151.84,13.96-28.13,29.42-40.99,49.69-41.58,2.84-.08,5.83.09,8.89.51.06.01.12.02.18.03,7.5,1.46,13.31,5.09,16.74,10.45.59.92,1.09,1.88,1.54,2.88-2.46-9.35-9.82-16.01-21.19-18.22-.08-.01-.17-.03-.25-.04-26.81-3.63-45.41,11.1-60.84,42.27-22.6,46.58-37.58,101.21-51.22,152.86,0,0,0,0,0-.01-.5,1.71-.99,3.42-1.49,5.12-.88,1.89-1.73,3.74-2.6,5.63-6.27,9.35-24.1,28.7-35.29,32.46Z" />
    <path class="bo"
          d="M217.25,217.41c.21-.02.43-.05.64-.09,12.64-2.82,25.54-12.93,31.43-24.67,3.67-7.33,4.15-14.5,1.29-20.2-.09-.18-.21-.35-.35-.49-.3-.3-.59-.61-.89-.91-.15-.15-.32-.28-.52-.38-1.45-.76-2.98-1.14-4.57-1.16.09.05.19.08.28.13.3.31.59.6.89.91,7.38,14.75-11.12,37.54-31.3,42.06-.48.11-.94.04-1.34-.13-.26,1.26.06,2.5.89,3.48.87,1.02,2.2,1.57,3.54,1.47Z" />
    <path class="ap"
          d="M184.23,276.71c-7.58-9.25-14.85-26.9-5.34-58.63,13.98-44.23,45.76-66.34,69.01-67.91,13.46-.85,22.83,3.91,27.23,13.5-3.95-12.68-14.79-19.3-30.67-18.29-25.86,1.77-57.27,26.32-70.84,69.41-13.55,45.55,5.15,70.25,31.52,74.85-8.44-2.18-15.68-6.58-20.9-12.92Z" />
    <path class="bk"
          d="M338.14,157.93c14.8-17.04,42.33-49.38,54.67-69.04,6.67-10.7,14.07-23.21,16.62-36.64,1.02-4.21.78-10.56-2.22-14.34-1.41-1.78-3.3-2.79-5.47-2.92-.04,0-.29,0-.29,0-.04,0-.15,0-.21,0-.01,0-.02,0-.03,0-.08,0-.16,0-.25.02,3.49,2.45,4.26,9.21,3.11,13.99-2.47,13.09-9.75,25.43-16.33,35.98-11.26,18-31.79,49.66-46.04,68.39,0,0,0,0,0,.01-2.19,2.92-2.16,2.58-3.57,4.56" />
    <path class="be"
          d="M40.08,266.34s.04.06.07.09c6.73,8.78,18.72,13.13,32.14,11.69,9.61-1.03,18.82-4.91,25.3-10.65,18.62-15.48,24.96-38.39,31.18-60.58.55-1.95,1.09-3.89,1.64-5.81,1.85-6.96,5.02-20.84,9.12-38.4,9.59-41.45,25.01-104.02,32.8-118.42,1.41-2.72,3.37-5.61,6.19-9.15,3.07-3.84,3.47-8.8,1.04-12.95-2.18-3.72-6.12-5.99-10.5-6.17,5.89,2.32,8.82,9.54,4.32,15.18-2.48,3.11-4.74,6.28-6.38,9.45-11.27,20.48-35.87,133.17-41.93,157.21-6.64,23.21-12.35,48.96-32.18,65.46-14.34,12.7-42.16,15.33-54.49-.71-.06-.09-.12-.19-.19-.28-.73-1.24-1.42-2.5-2.04-3.77.97,2.43,2.18,4.9,3.66,7.41.02.03.26.38.25.38Z" />
    <path class="an" d="M112,103.78c3.91,1.34,8.12,2.97,10.21,5.48-.7-5.37-6.67-7.92-12.9-10.05-6.7-2.31-10.99-6.05-13.44-10.58,2.36,7.09,7.92,12.3,16.14,15.15Z" />
    <path class="at"
          d="M7.42,285.76c-.02-.06-.04-.11-.07-.17-8.66-24.98-4.58-43.44,13.73-59.61,3.58-3.16,7.51-5.01,11.66-5.49,1.55-.18,3.16-.17,4.78.03.44.06,1.04.16,1.59.35.4-2.44-.58-4.44-4.73-4.97-6.95-.86-13.02,1.49-18.1,5.98-20.85,18.44-22.23,38.78-14.21,61.85.03.08.07.17.1.25,9.65,21.11,25.35,31.43,43.16,33.98-16.75-3.57-29.87-14.53-37.91-32.2Z" />
    <path class="bi"
          d="M86.88,132.42c1.73.5,3.44.84,5.12,1.04-.36-.09-.71-.18-1.07-.28-25.3-7.54-36.61-21.57-37.51-47.27-.42-51.39,59.2-89.48,114.63-93.73,4.81-.38,9.58-.5,14.16-.35,2.16.04,4.28.1,6.41.16,7.37.21,14.99.44,22.53-.08,6.79-.47,12.8-1.51,18.37-3.17.89-.27,1.73-.43,2.47-.47,1.48-.1,2.57.26,3.34,1.04-.46-4.16-3.48-7.16-9.89-5.25-15.38,4.62-31.09,3.31-46.59,3.04C121.14-14.89,47.21,24.8,47.81,83.36c.92,25.41,11.82,40.97,39.07,49.06Z" />
</svg>